<mxfile host="app.diagrams.net" agent="Mozilla/5.0 (Windows NT 10.0; Win64; x64) AppleWebKit/537.36 (KHTML, like Gecko) Chrome/130.0.0.0 Safari/537.36 Edg/130.0.0.0" version="24.8.6" pages="2">
  <diagram name="Page-1" id="ZFm0K5b6KUnPagZ73SPJ">
    <mxGraphModel dx="2253" dy="791" grid="1" gridSize="10" guides="1" tooltips="1" connect="1" arrows="1" fold="1" page="1" pageScale="1" pageWidth="827" pageHeight="1169" math="0" shadow="0">
      <root>
        <mxCell id="0" />
        <mxCell id="1" parent="0" />
        <mxCell id="DSBRGBkN_cT0Aw7xjU_L-8" style="edgeStyle=orthogonalEdgeStyle;rounded=0;orthogonalLoop=1;jettySize=auto;html=1;exitX=0.5;exitY=0;exitDx=0;exitDy=0;entryX=0.5;entryY=1;entryDx=0;entryDy=0;" parent="1" source="rvdnsQebios95YlR8L6v-1" target="DSBRGBkN_cT0Aw7xjU_L-5" edge="1">
          <mxGeometry relative="1" as="geometry" />
        </mxCell>
        <mxCell id="rvdnsQebios95YlR8L6v-1" value="«Component»&lt;br&gt;&lt;b&gt;Todo.vue&lt;/b&gt;" style="html=1;dropTarget=0;whiteSpace=wrap;" parent="1" vertex="1">
          <mxGeometry x="1570" y="635" width="180" height="90" as="geometry" />
        </mxCell>
        <mxCell id="rvdnsQebios95YlR8L6v-2" value="" style="shape=module;jettyWidth=8;jettyHeight=4;" parent="rvdnsQebios95YlR8L6v-1" vertex="1">
          <mxGeometry x="1" width="20" height="20" relative="1" as="geometry">
            <mxPoint x="-27" y="7" as="offset" />
          </mxGeometry>
        </mxCell>
        <mxCell id="rvdnsQebios95YlR8L6v-5" style="edgeStyle=orthogonalEdgeStyle;rounded=0;orthogonalLoop=1;jettySize=auto;html=1;exitX=0;exitY=0.5;exitDx=0;exitDy=0;entryX=1;entryY=0.5;entryDx=0;entryDy=0;" parent="1" target="rvdnsQebios95YlR8L6v-1" edge="1">
          <mxGeometry relative="1" as="geometry">
            <mxPoint x="2003" y="682.5" as="sourcePoint" />
            <Array as="points">
              <mxPoint x="2003" y="680" />
            </Array>
          </mxGeometry>
        </mxCell>
        <mxCell id="rvdnsQebios95YlR8L6v-3" value="rButtonRecipe.js" style="rounded=0;whiteSpace=wrap;html=1;" parent="1" vertex="1">
          <mxGeometry x="2000" y="650" width="120" height="60" as="geometry" />
        </mxCell>
        <mxCell id="rvdnsQebios95YlR8L6v-4" value="rTextsRecipe.js" style="rounded=0;whiteSpace=wrap;html=1;" parent="1" vertex="1">
          <mxGeometry x="2000" y="740" width="120" height="60" as="geometry" />
        </mxCell>
        <mxCell id="rvdnsQebios95YlR8L6v-7" value="" style="endArrow=none;html=1;rounded=0;" parent="1" edge="1">
          <mxGeometry width="50" height="50" relative="1" as="geometry">
            <mxPoint x="1880" y="770" as="sourcePoint" />
            <mxPoint x="1880" y="680" as="targetPoint" />
            <Array as="points">
              <mxPoint x="1880" y="730" />
            </Array>
          </mxGeometry>
        </mxCell>
        <mxCell id="rvdnsQebios95YlR8L6v-10" value="" style="endArrow=none;html=1;rounded=0;" parent="1" edge="1">
          <mxGeometry width="50" height="50" relative="1" as="geometry">
            <mxPoint x="1880" y="770" as="sourcePoint" />
            <mxPoint x="2000" y="770" as="targetPoint" />
          </mxGeometry>
        </mxCell>
        <mxCell id="rvdnsQebios95YlR8L6v-11" value="«Component»&lt;br&gt;&lt;b&gt;CommonButton.vue&lt;/b&gt;" style="html=1;dropTarget=0;whiteSpace=wrap;" parent="1" vertex="1">
          <mxGeometry x="1570" y="830" width="180" height="90" as="geometry" />
        </mxCell>
        <mxCell id="rvdnsQebios95YlR8L6v-12" value="" style="shape=module;jettyWidth=8;jettyHeight=4;" parent="rvdnsQebios95YlR8L6v-11" vertex="1">
          <mxGeometry x="1" width="20" height="20" relative="1" as="geometry">
            <mxPoint x="-27" y="7" as="offset" />
          </mxGeometry>
        </mxCell>
        <mxCell id="rvdnsQebios95YlR8L6v-14" value="" style="endArrow=diamondThin;endFill=1;endSize=24;html=1;rounded=0;exitX=0.5;exitY=0;exitDx=0;exitDy=0;entryX=0.5;entryY=1;entryDx=0;entryDy=0;" parent="1" source="rvdnsQebios95YlR8L6v-11" target="rvdnsQebios95YlR8L6v-1" edge="1">
          <mxGeometry width="160" relative="1" as="geometry">
            <mxPoint x="883" y="992.5" as="sourcePoint" />
            <mxPoint x="1043" y="992.5" as="targetPoint" />
          </mxGeometry>
        </mxCell>
        <mxCell id="rvdnsQebios95YlR8L6v-19" value="BMI Table" style="shape=table;startSize=30;container=1;collapsible=1;childLayout=tableLayout;fixedRows=1;rowLines=0;fontStyle=1;align=center;resizeLast=1;html=1;" parent="1" vertex="1">
          <mxGeometry x="658" y="730" width="180" height="170" as="geometry" />
        </mxCell>
        <mxCell id="rvdnsQebios95YlR8L6v-20" value="" style="shape=tableRow;horizontal=0;startSize=0;swimlaneHead=0;swimlaneBody=0;fillColor=none;collapsible=0;dropTarget=0;points=[[0,0.5],[1,0.5]];portConstraint=eastwest;top=0;left=0;right=0;bottom=1;" parent="rvdnsQebios95YlR8L6v-19" vertex="1">
          <mxGeometry y="30" width="180" height="30" as="geometry" />
        </mxCell>
        <mxCell id="rvdnsQebios95YlR8L6v-21" value="PK" style="shape=partialRectangle;connectable=0;fillColor=none;top=0;left=0;bottom=0;right=0;fontStyle=1;overflow=hidden;whiteSpace=wrap;html=1;" parent="rvdnsQebios95YlR8L6v-20" vertex="1">
          <mxGeometry width="30" height="30" as="geometry">
            <mxRectangle width="30" height="30" as="alternateBounds" />
          </mxGeometry>
        </mxCell>
        <mxCell id="rvdnsQebios95YlR8L6v-22" value="PersonId: int not null" style="shape=partialRectangle;connectable=0;fillColor=none;top=0;left=0;bottom=0;right=0;align=left;spacingLeft=6;fontStyle=5;overflow=hidden;whiteSpace=wrap;html=1;" parent="rvdnsQebios95YlR8L6v-20" vertex="1">
          <mxGeometry x="30" width="150" height="30" as="geometry">
            <mxRectangle width="150" height="30" as="alternateBounds" />
          </mxGeometry>
        </mxCell>
        <mxCell id="rvdnsQebios95YlR8L6v-23" value="" style="shape=tableRow;horizontal=0;startSize=0;swimlaneHead=0;swimlaneBody=0;fillColor=none;collapsible=0;dropTarget=0;points=[[0,0.5],[1,0.5]];portConstraint=eastwest;top=0;left=0;right=0;bottom=0;" parent="rvdnsQebios95YlR8L6v-19" vertex="1">
          <mxGeometry y="60" width="180" height="30" as="geometry" />
        </mxCell>
        <mxCell id="rvdnsQebios95YlR8L6v-24" value="" style="shape=partialRectangle;connectable=0;fillColor=none;top=0;left=0;bottom=0;right=0;editable=1;overflow=hidden;whiteSpace=wrap;html=1;" parent="rvdnsQebios95YlR8L6v-23" vertex="1">
          <mxGeometry width="30" height="30" as="geometry">
            <mxRectangle width="30" height="30" as="alternateBounds" />
          </mxGeometry>
        </mxCell>
        <mxCell id="rvdnsQebios95YlR8L6v-25" value="name: string(20) not null" style="shape=partialRectangle;connectable=0;fillColor=none;top=0;left=0;bottom=0;right=0;align=left;spacingLeft=6;overflow=hidden;whiteSpace=wrap;html=1;" parent="rvdnsQebios95YlR8L6v-23" vertex="1">
          <mxGeometry x="30" width="150" height="30" as="geometry">
            <mxRectangle width="150" height="30" as="alternateBounds" />
          </mxGeometry>
        </mxCell>
        <mxCell id="rvdnsQebios95YlR8L6v-26" value="" style="shape=tableRow;horizontal=0;startSize=0;swimlaneHead=0;swimlaneBody=0;fillColor=none;collapsible=0;dropTarget=0;points=[[0,0.5],[1,0.5]];portConstraint=eastwest;top=0;left=0;right=0;bottom=0;" parent="rvdnsQebios95YlR8L6v-19" vertex="1">
          <mxGeometry y="90" width="180" height="30" as="geometry" />
        </mxCell>
        <mxCell id="rvdnsQebios95YlR8L6v-27" value="" style="shape=partialRectangle;connectable=0;fillColor=none;top=0;left=0;bottom=0;right=0;editable=1;overflow=hidden;whiteSpace=wrap;html=1;" parent="rvdnsQebios95YlR8L6v-26" vertex="1">
          <mxGeometry width="30" height="30" as="geometry">
            <mxRectangle width="30" height="30" as="alternateBounds" />
          </mxGeometry>
        </mxCell>
        <mxCell id="rvdnsQebios95YlR8L6v-28" value="weight: int not null&amp;nbsp;" style="shape=partialRectangle;connectable=0;fillColor=none;top=0;left=0;bottom=0;right=0;align=left;spacingLeft=6;overflow=hidden;whiteSpace=wrap;html=1;" parent="rvdnsQebios95YlR8L6v-26" vertex="1">
          <mxGeometry x="30" width="150" height="30" as="geometry">
            <mxRectangle width="150" height="30" as="alternateBounds" />
          </mxGeometry>
        </mxCell>
        <mxCell id="rvdnsQebios95YlR8L6v-47" value="" style="shape=tableRow;horizontal=0;startSize=0;swimlaneHead=0;swimlaneBody=0;fillColor=none;collapsible=0;dropTarget=0;points=[[0,0.5],[1,0.5]];portConstraint=eastwest;top=0;left=0;right=0;bottom=0;" parent="rvdnsQebios95YlR8L6v-19" vertex="1">
          <mxGeometry y="120" width="180" height="30" as="geometry" />
        </mxCell>
        <mxCell id="rvdnsQebios95YlR8L6v-48" value="" style="shape=partialRectangle;connectable=0;fillColor=none;top=0;left=0;bottom=0;right=0;editable=1;overflow=hidden;whiteSpace=wrap;html=1;" parent="rvdnsQebios95YlR8L6v-47" vertex="1">
          <mxGeometry width="30" height="30" as="geometry">
            <mxRectangle width="30" height="30" as="alternateBounds" />
          </mxGeometry>
        </mxCell>
        <mxCell id="rvdnsQebios95YlR8L6v-49" value="height: int not null" style="shape=partialRectangle;connectable=0;fillColor=none;top=0;left=0;bottom=0;right=0;align=left;spacingLeft=6;overflow=hidden;whiteSpace=wrap;html=1;" parent="rvdnsQebios95YlR8L6v-47" vertex="1">
          <mxGeometry x="30" width="150" height="30" as="geometry">
            <mxRectangle width="150" height="30" as="alternateBounds" />
          </mxGeometry>
        </mxCell>
        <mxCell id="rvdnsQebios95YlR8L6v-29" value="" style="shape=tableRow;horizontal=0;startSize=0;swimlaneHead=0;swimlaneBody=0;fillColor=none;collapsible=0;dropTarget=0;points=[[0,0.5],[1,0.5]];portConstraint=eastwest;top=0;left=0;right=0;bottom=0;" parent="rvdnsQebios95YlR8L6v-19" vertex="1">
          <mxGeometry y="150" width="180" height="20" as="geometry" />
        </mxCell>
        <mxCell id="rvdnsQebios95YlR8L6v-30" value="" style="shape=partialRectangle;connectable=0;fillColor=none;top=0;left=0;bottom=0;right=0;editable=1;overflow=hidden;whiteSpace=wrap;html=1;" parent="rvdnsQebios95YlR8L6v-29" vertex="1">
          <mxGeometry width="30" height="20" as="geometry">
            <mxRectangle width="30" height="20" as="alternateBounds" />
          </mxGeometry>
        </mxCell>
        <mxCell id="rvdnsQebios95YlR8L6v-31" value="" style="shape=partialRectangle;connectable=0;fillColor=none;top=0;left=0;bottom=0;right=0;align=left;spacingLeft=6;overflow=hidden;whiteSpace=wrap;html=1;" parent="rvdnsQebios95YlR8L6v-29" vertex="1">
          <mxGeometry x="30" width="150" height="20" as="geometry">
            <mxRectangle width="150" height="20" as="alternateBounds" />
          </mxGeometry>
        </mxCell>
        <mxCell id="rvdnsQebios95YlR8L6v-51" style="edgeStyle=orthogonalEdgeStyle;rounded=0;orthogonalLoop=1;jettySize=auto;html=1;exitX=0;exitY=0.5;exitDx=0;exitDy=0;entryX=0;entryY=0.5;entryDx=0;entryDy=0;startArrow=ERone;startFill=0;endArrow=ERone;endFill=0;" parent="1" source="rvdnsQebios95YlR8L6v-20" target="DSBRGBkN_cT0Aw7xjU_L-19" edge="1">
          <mxGeometry relative="1" as="geometry">
            <mxPoint x="647" y="995" as="targetPoint" />
          </mxGeometry>
        </mxCell>
        <mxCell id="rvdnsQebios95YlR8L6v-75" value="BMI Table" style="shape=table;startSize=30;container=1;collapsible=1;childLayout=tableLayout;fixedRows=1;rowLines=0;fontStyle=1;align=center;resizeLast=1;html=1;" parent="1" vertex="1">
          <mxGeometry x="351.5" y="730" width="180" height="170" as="geometry" />
        </mxCell>
        <mxCell id="rvdnsQebios95YlR8L6v-76" value="" style="shape=tableRow;horizontal=0;startSize=0;swimlaneHead=0;swimlaneBody=0;fillColor=none;collapsible=0;dropTarget=0;points=[[0,0.5],[1,0.5]];portConstraint=eastwest;top=0;left=0;right=0;bottom=1;" parent="rvdnsQebios95YlR8L6v-75" vertex="1">
          <mxGeometry y="30" width="180" height="30" as="geometry" />
        </mxCell>
        <mxCell id="rvdnsQebios95YlR8L6v-77" value="" style="shape=partialRectangle;connectable=0;fillColor=none;top=0;left=0;bottom=0;right=0;fontStyle=1;overflow=hidden;whiteSpace=wrap;html=1;" parent="rvdnsQebios95YlR8L6v-76" vertex="1">
          <mxGeometry width="30" height="30" as="geometry">
            <mxRectangle width="30" height="30" as="alternateBounds" />
          </mxGeometry>
        </mxCell>
        <mxCell id="rvdnsQebios95YlR8L6v-78" value="PersonId: int not null" style="shape=partialRectangle;connectable=0;fillColor=none;top=0;left=0;bottom=0;right=0;align=left;spacingLeft=6;fontStyle=5;overflow=hidden;whiteSpace=wrap;html=1;" parent="rvdnsQebios95YlR8L6v-76" vertex="1">
          <mxGeometry x="30" width="150" height="30" as="geometry">
            <mxRectangle width="150" height="30" as="alternateBounds" />
          </mxGeometry>
        </mxCell>
        <mxCell id="rvdnsQebios95YlR8L6v-79" value="" style="shape=tableRow;horizontal=0;startSize=0;swimlaneHead=0;swimlaneBody=0;fillColor=none;collapsible=0;dropTarget=0;points=[[0,0.5],[1,0.5]];portConstraint=eastwest;top=0;left=0;right=0;bottom=0;" parent="rvdnsQebios95YlR8L6v-75" vertex="1">
          <mxGeometry y="60" width="180" height="30" as="geometry" />
        </mxCell>
        <mxCell id="rvdnsQebios95YlR8L6v-80" value="" style="shape=partialRectangle;connectable=0;fillColor=none;top=0;left=0;bottom=0;right=0;editable=1;overflow=hidden;whiteSpace=wrap;html=1;" parent="rvdnsQebios95YlR8L6v-79" vertex="1">
          <mxGeometry width="30" height="30" as="geometry">
            <mxRectangle width="30" height="30" as="alternateBounds" />
          </mxGeometry>
        </mxCell>
        <mxCell id="rvdnsQebios95YlR8L6v-81" value="name: string(20) not null" style="shape=partialRectangle;connectable=0;fillColor=none;top=0;left=0;bottom=0;right=0;align=left;spacingLeft=6;overflow=hidden;whiteSpace=wrap;html=1;" parent="rvdnsQebios95YlR8L6v-79" vertex="1">
          <mxGeometry x="30" width="150" height="30" as="geometry">
            <mxRectangle width="150" height="30" as="alternateBounds" />
          </mxGeometry>
        </mxCell>
        <mxCell id="rvdnsQebios95YlR8L6v-82" value="" style="shape=tableRow;horizontal=0;startSize=0;swimlaneHead=0;swimlaneBody=0;fillColor=none;collapsible=0;dropTarget=0;points=[[0,0.5],[1,0.5]];portConstraint=eastwest;top=0;left=0;right=0;bottom=0;" parent="rvdnsQebios95YlR8L6v-75" vertex="1">
          <mxGeometry y="90" width="180" height="30" as="geometry" />
        </mxCell>
        <mxCell id="rvdnsQebios95YlR8L6v-83" value="" style="shape=partialRectangle;connectable=0;fillColor=none;top=0;left=0;bottom=0;right=0;editable=1;overflow=hidden;whiteSpace=wrap;html=1;" parent="rvdnsQebios95YlR8L6v-82" vertex="1">
          <mxGeometry width="30" height="30" as="geometry">
            <mxRectangle width="30" height="30" as="alternateBounds" />
          </mxGeometry>
        </mxCell>
        <mxCell id="rvdnsQebios95YlR8L6v-84" value="weight: int not null&amp;nbsp;" style="shape=partialRectangle;connectable=0;fillColor=none;top=0;left=0;bottom=0;right=0;align=left;spacingLeft=6;overflow=hidden;whiteSpace=wrap;html=1;" parent="rvdnsQebios95YlR8L6v-82" vertex="1">
          <mxGeometry x="30" width="150" height="30" as="geometry">
            <mxRectangle width="150" height="30" as="alternateBounds" />
          </mxGeometry>
        </mxCell>
        <mxCell id="rvdnsQebios95YlR8L6v-85" value="" style="shape=tableRow;horizontal=0;startSize=0;swimlaneHead=0;swimlaneBody=0;fillColor=none;collapsible=0;dropTarget=0;points=[[0,0.5],[1,0.5]];portConstraint=eastwest;top=0;left=0;right=0;bottom=0;" parent="rvdnsQebios95YlR8L6v-75" vertex="1">
          <mxGeometry y="120" width="180" height="30" as="geometry" />
        </mxCell>
        <mxCell id="rvdnsQebios95YlR8L6v-86" value="" style="shape=partialRectangle;connectable=0;fillColor=none;top=0;left=0;bottom=0;right=0;editable=1;overflow=hidden;whiteSpace=wrap;html=1;" parent="rvdnsQebios95YlR8L6v-85" vertex="1">
          <mxGeometry width="30" height="30" as="geometry">
            <mxRectangle width="30" height="30" as="alternateBounds" />
          </mxGeometry>
        </mxCell>
        <mxCell id="rvdnsQebios95YlR8L6v-87" value="height: int not null" style="shape=partialRectangle;connectable=0;fillColor=none;top=0;left=0;bottom=0;right=0;align=left;spacingLeft=6;overflow=hidden;whiteSpace=wrap;html=1;" parent="rvdnsQebios95YlR8L6v-85" vertex="1">
          <mxGeometry x="30" width="150" height="30" as="geometry">
            <mxRectangle width="150" height="30" as="alternateBounds" />
          </mxGeometry>
        </mxCell>
        <mxCell id="rvdnsQebios95YlR8L6v-88" value="" style="shape=tableRow;horizontal=0;startSize=0;swimlaneHead=0;swimlaneBody=0;fillColor=none;collapsible=0;dropTarget=0;points=[[0,0.5],[1,0.5]];portConstraint=eastwest;top=0;left=0;right=0;bottom=0;" parent="rvdnsQebios95YlR8L6v-75" vertex="1">
          <mxGeometry y="150" width="180" height="20" as="geometry" />
        </mxCell>
        <mxCell id="rvdnsQebios95YlR8L6v-89" value="" style="shape=partialRectangle;connectable=0;fillColor=none;top=0;left=0;bottom=0;right=0;editable=1;overflow=hidden;whiteSpace=wrap;html=1;" parent="rvdnsQebios95YlR8L6v-88" vertex="1">
          <mxGeometry width="30" height="20" as="geometry">
            <mxRectangle width="30" height="20" as="alternateBounds" />
          </mxGeometry>
        </mxCell>
        <mxCell id="rvdnsQebios95YlR8L6v-90" value="" style="shape=partialRectangle;connectable=0;fillColor=none;top=0;left=0;bottom=0;right=0;align=left;spacingLeft=6;overflow=hidden;whiteSpace=wrap;html=1;" parent="rvdnsQebios95YlR8L6v-88" vertex="1">
          <mxGeometry x="30" width="150" height="20" as="geometry">
            <mxRectangle width="150" height="20" as="alternateBounds" />
          </mxGeometry>
        </mxCell>
        <mxCell id="rvdnsQebios95YlR8L6v-133" value="&lt;b&gt;ERD&lt;/b&gt;" style="text;html=1;align=center;verticalAlign=middle;whiteSpace=wrap;rounded=0;" parent="1" vertex="1">
          <mxGeometry x="728" y="680" width="80" height="30" as="geometry" />
        </mxCell>
        <mxCell id="rvdnsQebios95YlR8L6v-134" value="&lt;b&gt;Dataset Diagram&lt;/b&gt;" style="text;html=1;align=center;verticalAlign=middle;whiteSpace=wrap;rounded=0;" parent="1" vertex="1">
          <mxGeometry x="408" y="680" width="80" height="30" as="geometry" />
        </mxCell>
        <mxCell id="rvdnsQebios95YlR8L6v-135" value="&lt;b&gt;Class Diagram&lt;/b&gt;" style="text;html=1;align=center;verticalAlign=middle;whiteSpace=wrap;rounded=0;" parent="1" vertex="1">
          <mxGeometry x="99" y="680" width="80" height="30" as="geometry" />
        </mxCell>
        <mxCell id="DSBRGBkN_cT0Aw7xjU_L-1" value="«Component»&lt;br&gt;&lt;b&gt;App.vue&lt;/b&gt;" style="html=1;dropTarget=0;whiteSpace=wrap;" parent="1" vertex="1">
          <mxGeometry x="1360" y="480" width="180" height="90" as="geometry" />
        </mxCell>
        <mxCell id="DSBRGBkN_cT0Aw7xjU_L-2" value="" style="shape=module;jettyWidth=8;jettyHeight=4;" parent="DSBRGBkN_cT0Aw7xjU_L-1" vertex="1">
          <mxGeometry x="1" width="20" height="20" relative="1" as="geometry">
            <mxPoint x="-27" y="7" as="offset" />
          </mxGeometry>
        </mxCell>
        <mxCell id="DSBRGBkN_cT0Aw7xjU_L-4" value="main.js" style="rounded=0;whiteSpace=wrap;html=1;" parent="1" vertex="1">
          <mxGeometry x="1385" y="380" width="130" height="60" as="geometry" />
        </mxCell>
        <mxCell id="DSBRGBkN_cT0Aw7xjU_L-7" style="edgeStyle=orthogonalEdgeStyle;rounded=0;orthogonalLoop=1;jettySize=auto;html=1;exitX=0;exitY=0.5;exitDx=0;exitDy=0;entryX=1;entryY=0.5;entryDx=0;entryDy=0;" parent="1" source="DSBRGBkN_cT0Aw7xjU_L-5" target="DSBRGBkN_cT0Aw7xjU_L-1" edge="1">
          <mxGeometry relative="1" as="geometry" />
        </mxCell>
        <mxCell id="DSBRGBkN_cT0Aw7xjU_L-5" value="index.js" style="rounded=0;whiteSpace=wrap;html=1;" parent="1" vertex="1">
          <mxGeometry x="1600" y="495" width="120" height="60" as="geometry" />
        </mxCell>
        <mxCell id="DSBRGBkN_cT0Aw7xjU_L-6" value="" style="endArrow=classic;html=1;rounded=0;exitX=0.5;exitY=0;exitDx=0;exitDy=0;entryX=0.5;entryY=1;entryDx=0;entryDy=0;" parent="1" source="DSBRGBkN_cT0Aw7xjU_L-1" target="DSBRGBkN_cT0Aw7xjU_L-4" edge="1">
          <mxGeometry width="50" height="50" relative="1" as="geometry">
            <mxPoint x="1560" y="650" as="sourcePoint" />
            <mxPoint x="1610" y="600" as="targetPoint" />
          </mxGeometry>
        </mxCell>
        <mxCell id="DSBRGBkN_cT0Aw7xjU_L-15" value="&lt;span style=&quot;text-wrap-mode: nowrap;&quot;&gt;BMI Output Table&lt;/span&gt;" style="shape=table;startSize=30;container=1;collapsible=1;childLayout=tableLayout;fixedRows=1;rowLines=0;fontStyle=1;align=center;resizeLast=1;html=1;whiteSpace=wrap;" parent="1" vertex="1">
          <mxGeometry x="658" y="935" width="223" height="180" as="geometry" />
        </mxCell>
        <mxCell id="DSBRGBkN_cT0Aw7xjU_L-16" value="" style="shape=tableRow;horizontal=0;startSize=0;swimlaneHead=0;swimlaneBody=0;fillColor=none;collapsible=0;dropTarget=0;points=[[0,0.5],[1,0.5]];portConstraint=eastwest;top=0;left=0;right=0;bottom=0;html=1;" parent="DSBRGBkN_cT0Aw7xjU_L-15" vertex="1">
          <mxGeometry y="30" width="223" height="30" as="geometry" />
        </mxCell>
        <mxCell id="DSBRGBkN_cT0Aw7xjU_L-17" value="PK" style="shape=partialRectangle;connectable=0;fillColor=none;top=0;left=0;bottom=0;right=0;fontStyle=1;overflow=hidden;html=1;whiteSpace=wrap;" parent="DSBRGBkN_cT0Aw7xjU_L-16" vertex="1">
          <mxGeometry width="60" height="30" as="geometry">
            <mxRectangle width="60" height="30" as="alternateBounds" />
          </mxGeometry>
        </mxCell>
        <mxCell id="DSBRGBkN_cT0Aw7xjU_L-18" value="Person_OutputID int not null" style="shape=partialRectangle;connectable=0;fillColor=none;top=0;left=0;bottom=0;right=0;align=left;spacingLeft=6;fontStyle=5;overflow=hidden;html=1;whiteSpace=wrap;" parent="DSBRGBkN_cT0Aw7xjU_L-16" vertex="1">
          <mxGeometry x="60" width="163" height="30" as="geometry">
            <mxRectangle width="163" height="30" as="alternateBounds" />
          </mxGeometry>
        </mxCell>
        <mxCell id="DSBRGBkN_cT0Aw7xjU_L-19" value="" style="shape=tableRow;horizontal=0;startSize=0;swimlaneHead=0;swimlaneBody=0;fillColor=none;collapsible=0;dropTarget=0;points=[[0,0.5],[1,0.5]];portConstraint=eastwest;top=0;left=0;right=0;bottom=1;html=1;" parent="DSBRGBkN_cT0Aw7xjU_L-15" vertex="1">
          <mxGeometry y="60" width="223" height="30" as="geometry" />
        </mxCell>
        <mxCell id="DSBRGBkN_cT0Aw7xjU_L-20" value="FK" style="shape=partialRectangle;connectable=0;fillColor=none;top=0;left=0;bottom=0;right=0;fontStyle=1;overflow=hidden;html=1;whiteSpace=wrap;" parent="DSBRGBkN_cT0Aw7xjU_L-19" vertex="1">
          <mxGeometry width="60" height="30" as="geometry">
            <mxRectangle width="60" height="30" as="alternateBounds" />
          </mxGeometry>
        </mxCell>
        <mxCell id="DSBRGBkN_cT0Aw7xjU_L-21" value="PersonId: int not null" style="shape=partialRectangle;connectable=0;fillColor=none;top=0;left=0;bottom=0;right=0;align=left;spacingLeft=6;fontStyle=5;overflow=hidden;html=1;whiteSpace=wrap;" parent="DSBRGBkN_cT0Aw7xjU_L-19" vertex="1">
          <mxGeometry x="60" width="163" height="30" as="geometry">
            <mxRectangle width="163" height="30" as="alternateBounds" />
          </mxGeometry>
        </mxCell>
        <mxCell id="DSBRGBkN_cT0Aw7xjU_L-22" value="" style="shape=tableRow;horizontal=0;startSize=0;swimlaneHead=0;swimlaneBody=0;fillColor=none;collapsible=0;dropTarget=0;points=[[0,0.5],[1,0.5]];portConstraint=eastwest;top=0;left=0;right=0;bottom=0;html=1;" parent="DSBRGBkN_cT0Aw7xjU_L-15" vertex="1">
          <mxGeometry y="90" width="223" height="30" as="geometry" />
        </mxCell>
        <mxCell id="DSBRGBkN_cT0Aw7xjU_L-23" value="" style="shape=partialRectangle;connectable=0;fillColor=none;top=0;left=0;bottom=0;right=0;editable=1;overflow=hidden;html=1;whiteSpace=wrap;" parent="DSBRGBkN_cT0Aw7xjU_L-22" vertex="1">
          <mxGeometry width="60" height="30" as="geometry">
            <mxRectangle width="60" height="30" as="alternateBounds" />
          </mxGeometry>
        </mxCell>
        <mxCell id="DSBRGBkN_cT0Aw7xjU_L-24" value="name_output: string(20) not null" style="shape=partialRectangle;connectable=0;fillColor=none;top=0;left=0;bottom=0;right=0;align=left;spacingLeft=6;overflow=hidden;html=1;whiteSpace=wrap;" parent="DSBRGBkN_cT0Aw7xjU_L-22" vertex="1">
          <mxGeometry x="60" width="163" height="30" as="geometry">
            <mxRectangle width="163" height="30" as="alternateBounds" />
          </mxGeometry>
        </mxCell>
        <mxCell id="DSBRGBkN_cT0Aw7xjU_L-25" value="" style="shape=tableRow;horizontal=0;startSize=0;swimlaneHead=0;swimlaneBody=0;fillColor=none;collapsible=0;dropTarget=0;points=[[0,0.5],[1,0.5]];portConstraint=eastwest;top=0;left=0;right=0;bottom=0;html=1;" parent="DSBRGBkN_cT0Aw7xjU_L-15" vertex="1">
          <mxGeometry y="120" width="223" height="30" as="geometry" />
        </mxCell>
        <mxCell id="DSBRGBkN_cT0Aw7xjU_L-26" value="" style="shape=partialRectangle;connectable=0;fillColor=none;top=0;left=0;bottom=0;right=0;editable=1;overflow=hidden;html=1;whiteSpace=wrap;" parent="DSBRGBkN_cT0Aw7xjU_L-25" vertex="1">
          <mxGeometry width="60" height="30" as="geometry">
            <mxRectangle width="60" height="30" as="alternateBounds" />
          </mxGeometry>
        </mxCell>
        <mxCell id="DSBRGBkN_cT0Aw7xjU_L-27" value="bmi_output: float not null&amp;nbsp;" style="shape=partialRectangle;connectable=0;fillColor=none;top=0;left=0;bottom=0;right=0;align=left;spacingLeft=6;overflow=hidden;html=1;whiteSpace=wrap;" parent="DSBRGBkN_cT0Aw7xjU_L-25" vertex="1">
          <mxGeometry x="60" width="163" height="30" as="geometry">
            <mxRectangle width="163" height="30" as="alternateBounds" />
          </mxGeometry>
        </mxCell>
        <mxCell id="DSBRGBkN_cT0Aw7xjU_L-28" value="" style="shape=tableRow;horizontal=0;startSize=0;swimlaneHead=0;swimlaneBody=0;fillColor=none;collapsible=0;dropTarget=0;points=[[0,0.5],[1,0.5]];portConstraint=eastwest;top=0;left=0;right=0;bottom=0;html=1;" parent="DSBRGBkN_cT0Aw7xjU_L-15" vertex="1">
          <mxGeometry y="150" width="223" height="30" as="geometry" />
        </mxCell>
        <mxCell id="DSBRGBkN_cT0Aw7xjU_L-29" value="" style="shape=partialRectangle;connectable=0;fillColor=none;top=0;left=0;bottom=0;right=0;editable=1;overflow=hidden;html=1;whiteSpace=wrap;" parent="DSBRGBkN_cT0Aw7xjU_L-28" vertex="1">
          <mxGeometry width="60" height="30" as="geometry">
            <mxRectangle width="60" height="30" as="alternateBounds" />
          </mxGeometry>
        </mxCell>
        <mxCell id="DSBRGBkN_cT0Aw7xjU_L-30" value="classification_output: string not null" style="shape=partialRectangle;connectable=0;fillColor=none;top=0;left=0;bottom=0;right=0;align=left;spacingLeft=6;overflow=hidden;html=1;whiteSpace=wrap;" parent="DSBRGBkN_cT0Aw7xjU_L-28" vertex="1">
          <mxGeometry x="60" width="163" height="30" as="geometry">
            <mxRectangle width="163" height="30" as="alternateBounds" />
          </mxGeometry>
        </mxCell>
        <mxCell id="DSBRGBkN_cT0Aw7xjU_L-31" value="&lt;span style=&quot;text-wrap-mode: nowrap;&quot;&gt;BMI Output Table&lt;/span&gt;" style="shape=table;startSize=30;container=1;collapsible=1;childLayout=tableLayout;fixedRows=1;rowLines=0;fontStyle=1;align=center;resizeLast=1;html=1;whiteSpace=wrap;" parent="1" vertex="1">
          <mxGeometry x="351.5" y="935" width="248" height="180" as="geometry" />
        </mxCell>
        <mxCell id="DSBRGBkN_cT0Aw7xjU_L-32" value="" style="shape=tableRow;horizontal=0;startSize=0;swimlaneHead=0;swimlaneBody=0;fillColor=none;collapsible=0;dropTarget=0;points=[[0,0.5],[1,0.5]];portConstraint=eastwest;top=0;left=0;right=0;bottom=0;html=1;" parent="DSBRGBkN_cT0Aw7xjU_L-31" vertex="1">
          <mxGeometry y="30" width="248" height="30" as="geometry" />
        </mxCell>
        <mxCell id="DSBRGBkN_cT0Aw7xjU_L-33" value="" style="shape=partialRectangle;connectable=0;fillColor=none;top=0;left=0;bottom=0;right=0;fontStyle=1;overflow=hidden;html=1;whiteSpace=wrap;" parent="DSBRGBkN_cT0Aw7xjU_L-32" vertex="1">
          <mxGeometry width="60" height="30" as="geometry">
            <mxRectangle width="60" height="30" as="alternateBounds" />
          </mxGeometry>
        </mxCell>
        <mxCell id="DSBRGBkN_cT0Aw7xjU_L-34" value="Person_OutputID int not null" style="shape=partialRectangle;connectable=0;fillColor=none;top=0;left=0;bottom=0;right=0;align=left;spacingLeft=6;fontStyle=5;overflow=hidden;html=1;whiteSpace=wrap;" parent="DSBRGBkN_cT0Aw7xjU_L-32" vertex="1">
          <mxGeometry x="60" width="188" height="30" as="geometry">
            <mxRectangle width="188" height="30" as="alternateBounds" />
          </mxGeometry>
        </mxCell>
        <mxCell id="DSBRGBkN_cT0Aw7xjU_L-35" value="" style="shape=tableRow;horizontal=0;startSize=0;swimlaneHead=0;swimlaneBody=0;fillColor=none;collapsible=0;dropTarget=0;points=[[0,0.5],[1,0.5]];portConstraint=eastwest;top=0;left=0;right=0;bottom=1;html=1;" parent="DSBRGBkN_cT0Aw7xjU_L-31" vertex="1">
          <mxGeometry y="60" width="248" height="30" as="geometry" />
        </mxCell>
        <mxCell id="DSBRGBkN_cT0Aw7xjU_L-36" value="" style="shape=partialRectangle;connectable=0;fillColor=none;top=0;left=0;bottom=0;right=0;fontStyle=1;overflow=hidden;html=1;whiteSpace=wrap;" parent="DSBRGBkN_cT0Aw7xjU_L-35" vertex="1">
          <mxGeometry width="60" height="30" as="geometry">
            <mxRectangle width="60" height="30" as="alternateBounds" />
          </mxGeometry>
        </mxCell>
        <mxCell id="DSBRGBkN_cT0Aw7xjU_L-37" value="PersonId: int not null" style="shape=partialRectangle;connectable=0;fillColor=none;top=0;left=0;bottom=0;right=0;align=left;spacingLeft=6;fontStyle=5;overflow=hidden;html=1;whiteSpace=wrap;" parent="DSBRGBkN_cT0Aw7xjU_L-35" vertex="1">
          <mxGeometry x="60" width="188" height="30" as="geometry">
            <mxRectangle width="188" height="30" as="alternateBounds" />
          </mxGeometry>
        </mxCell>
        <mxCell id="DSBRGBkN_cT0Aw7xjU_L-38" value="" style="shape=tableRow;horizontal=0;startSize=0;swimlaneHead=0;swimlaneBody=0;fillColor=none;collapsible=0;dropTarget=0;points=[[0,0.5],[1,0.5]];portConstraint=eastwest;top=0;left=0;right=0;bottom=0;html=1;" parent="DSBRGBkN_cT0Aw7xjU_L-31" vertex="1">
          <mxGeometry y="90" width="248" height="30" as="geometry" />
        </mxCell>
        <mxCell id="DSBRGBkN_cT0Aw7xjU_L-39" value="" style="shape=partialRectangle;connectable=0;fillColor=none;top=0;left=0;bottom=0;right=0;editable=1;overflow=hidden;html=1;whiteSpace=wrap;" parent="DSBRGBkN_cT0Aw7xjU_L-38" vertex="1">
          <mxGeometry width="60" height="30" as="geometry">
            <mxRectangle width="60" height="30" as="alternateBounds" />
          </mxGeometry>
        </mxCell>
        <mxCell id="DSBRGBkN_cT0Aw7xjU_L-40" value="name_output: string(20) not null" style="shape=partialRectangle;connectable=0;fillColor=none;top=0;left=0;bottom=0;right=0;align=left;spacingLeft=6;overflow=hidden;html=1;whiteSpace=wrap;" parent="DSBRGBkN_cT0Aw7xjU_L-38" vertex="1">
          <mxGeometry x="60" width="188" height="30" as="geometry">
            <mxRectangle width="188" height="30" as="alternateBounds" />
          </mxGeometry>
        </mxCell>
        <mxCell id="DSBRGBkN_cT0Aw7xjU_L-41" value="" style="shape=tableRow;horizontal=0;startSize=0;swimlaneHead=0;swimlaneBody=0;fillColor=none;collapsible=0;dropTarget=0;points=[[0,0.5],[1,0.5]];portConstraint=eastwest;top=0;left=0;right=0;bottom=0;html=1;" parent="DSBRGBkN_cT0Aw7xjU_L-31" vertex="1">
          <mxGeometry y="120" width="248" height="30" as="geometry" />
        </mxCell>
        <mxCell id="DSBRGBkN_cT0Aw7xjU_L-42" value="" style="shape=partialRectangle;connectable=0;fillColor=none;top=0;left=0;bottom=0;right=0;editable=1;overflow=hidden;html=1;whiteSpace=wrap;" parent="DSBRGBkN_cT0Aw7xjU_L-41" vertex="1">
          <mxGeometry width="60" height="30" as="geometry">
            <mxRectangle width="60" height="30" as="alternateBounds" />
          </mxGeometry>
        </mxCell>
        <mxCell id="DSBRGBkN_cT0Aw7xjU_L-43" value="bmi_output: float not null&amp;nbsp;" style="shape=partialRectangle;connectable=0;fillColor=none;top=0;left=0;bottom=0;right=0;align=left;spacingLeft=6;overflow=hidden;html=1;whiteSpace=wrap;" parent="DSBRGBkN_cT0Aw7xjU_L-41" vertex="1">
          <mxGeometry x="60" width="188" height="30" as="geometry">
            <mxRectangle width="188" height="30" as="alternateBounds" />
          </mxGeometry>
        </mxCell>
        <mxCell id="DSBRGBkN_cT0Aw7xjU_L-44" value="" style="shape=tableRow;horizontal=0;startSize=0;swimlaneHead=0;swimlaneBody=0;fillColor=none;collapsible=0;dropTarget=0;points=[[0,0.5],[1,0.5]];portConstraint=eastwest;top=0;left=0;right=0;bottom=0;html=1;" parent="DSBRGBkN_cT0Aw7xjU_L-31" vertex="1">
          <mxGeometry y="150" width="248" height="30" as="geometry" />
        </mxCell>
        <mxCell id="DSBRGBkN_cT0Aw7xjU_L-45" value="" style="shape=partialRectangle;connectable=0;fillColor=none;top=0;left=0;bottom=0;right=0;editable=1;overflow=hidden;html=1;whiteSpace=wrap;" parent="DSBRGBkN_cT0Aw7xjU_L-44" vertex="1">
          <mxGeometry width="60" height="30" as="geometry">
            <mxRectangle width="60" height="30" as="alternateBounds" />
          </mxGeometry>
        </mxCell>
        <mxCell id="DSBRGBkN_cT0Aw7xjU_L-46" value="classification_output: string not null" style="shape=partialRectangle;connectable=0;fillColor=none;top=0;left=0;bottom=0;right=0;align=left;spacingLeft=6;overflow=hidden;html=1;whiteSpace=wrap;" parent="DSBRGBkN_cT0Aw7xjU_L-44" vertex="1">
          <mxGeometry x="60" width="188" height="30" as="geometry">
            <mxRectangle width="188" height="30" as="alternateBounds" />
          </mxGeometry>
        </mxCell>
        <mxCell id="DSBRGBkN_cT0Aw7xjU_L-47" value="BMI Table" style="shape=table;startSize=30;container=1;collapsible=1;childLayout=tableLayout;fixedRows=1;rowLines=0;fontStyle=1;align=center;resizeLast=1;html=1;" parent="1" vertex="1">
          <mxGeometry x="49" y="740" width="180" height="180" as="geometry" />
        </mxCell>
        <mxCell id="DSBRGBkN_cT0Aw7xjU_L-48" value="" style="shape=tableRow;horizontal=0;startSize=0;swimlaneHead=0;swimlaneBody=0;fillColor=none;collapsible=0;dropTarget=0;points=[[0,0.5],[1,0.5]];portConstraint=eastwest;top=0;left=0;right=0;bottom=1;" parent="DSBRGBkN_cT0Aw7xjU_L-47" vertex="1">
          <mxGeometry y="30" width="180" height="30" as="geometry" />
        </mxCell>
        <mxCell id="DSBRGBkN_cT0Aw7xjU_L-49" value="" style="shape=partialRectangle;connectable=0;fillColor=none;top=0;left=0;bottom=0;right=0;fontStyle=1;overflow=hidden;whiteSpace=wrap;html=1;" parent="DSBRGBkN_cT0Aw7xjU_L-48" vertex="1">
          <mxGeometry width="30" height="30" as="geometry">
            <mxRectangle width="30" height="30" as="alternateBounds" />
          </mxGeometry>
        </mxCell>
        <mxCell id="DSBRGBkN_cT0Aw7xjU_L-50" value="+ PersonId: int not null" style="shape=partialRectangle;connectable=0;fillColor=none;top=0;left=0;bottom=0;right=0;align=left;spacingLeft=6;fontStyle=4;overflow=hidden;whiteSpace=wrap;html=1;" parent="DSBRGBkN_cT0Aw7xjU_L-48" vertex="1">
          <mxGeometry x="30" width="150" height="30" as="geometry">
            <mxRectangle width="150" height="30" as="alternateBounds" />
          </mxGeometry>
        </mxCell>
        <mxCell id="DSBRGBkN_cT0Aw7xjU_L-51" value="" style="shape=tableRow;horizontal=0;startSize=0;swimlaneHead=0;swimlaneBody=0;fillColor=none;collapsible=0;dropTarget=0;points=[[0,0.5],[1,0.5]];portConstraint=eastwest;top=0;left=0;right=0;bottom=0;" parent="DSBRGBkN_cT0Aw7xjU_L-47" vertex="1">
          <mxGeometry y="60" width="180" height="30" as="geometry" />
        </mxCell>
        <mxCell id="DSBRGBkN_cT0Aw7xjU_L-52" value="" style="shape=partialRectangle;connectable=0;fillColor=none;top=0;left=0;bottom=0;right=0;editable=1;overflow=hidden;whiteSpace=wrap;html=1;" parent="DSBRGBkN_cT0Aw7xjU_L-51" vertex="1">
          <mxGeometry width="30" height="30" as="geometry">
            <mxRectangle width="30" height="30" as="alternateBounds" />
          </mxGeometry>
        </mxCell>
        <mxCell id="DSBRGBkN_cT0Aw7xjU_L-53" value="+&amp;nbsp;name: string(20) not null" style="shape=partialRectangle;connectable=0;fillColor=none;top=0;left=0;bottom=0;right=0;align=left;spacingLeft=6;overflow=hidden;whiteSpace=wrap;html=1;" parent="DSBRGBkN_cT0Aw7xjU_L-51" vertex="1">
          <mxGeometry x="30" width="150" height="30" as="geometry">
            <mxRectangle width="150" height="30" as="alternateBounds" />
          </mxGeometry>
        </mxCell>
        <mxCell id="DSBRGBkN_cT0Aw7xjU_L-54" value="" style="shape=tableRow;horizontal=0;startSize=0;swimlaneHead=0;swimlaneBody=0;fillColor=none;collapsible=0;dropTarget=0;points=[[0,0.5],[1,0.5]];portConstraint=eastwest;top=0;left=0;right=0;bottom=0;" parent="DSBRGBkN_cT0Aw7xjU_L-47" vertex="1">
          <mxGeometry y="90" width="180" height="30" as="geometry" />
        </mxCell>
        <mxCell id="DSBRGBkN_cT0Aw7xjU_L-55" value="" style="shape=partialRectangle;connectable=0;fillColor=none;top=0;left=0;bottom=0;right=0;editable=1;overflow=hidden;whiteSpace=wrap;html=1;" parent="DSBRGBkN_cT0Aw7xjU_L-54" vertex="1">
          <mxGeometry width="30" height="30" as="geometry">
            <mxRectangle width="30" height="30" as="alternateBounds" />
          </mxGeometry>
        </mxCell>
        <mxCell id="DSBRGBkN_cT0Aw7xjU_L-56" value="+ weight: int not null&amp;nbsp;" style="shape=partialRectangle;connectable=0;fillColor=none;top=0;left=0;bottom=0;right=0;align=left;spacingLeft=6;overflow=hidden;whiteSpace=wrap;html=1;" parent="DSBRGBkN_cT0Aw7xjU_L-54" vertex="1">
          <mxGeometry x="30" width="150" height="30" as="geometry">
            <mxRectangle width="150" height="30" as="alternateBounds" />
          </mxGeometry>
        </mxCell>
        <mxCell id="DSBRGBkN_cT0Aw7xjU_L-57" value="" style="shape=tableRow;horizontal=0;startSize=0;swimlaneHead=0;swimlaneBody=0;fillColor=none;collapsible=0;dropTarget=0;points=[[0,0.5],[1,0.5]];portConstraint=eastwest;top=0;left=0;right=0;bottom=0;" parent="DSBRGBkN_cT0Aw7xjU_L-47" vertex="1">
          <mxGeometry y="120" width="180" height="30" as="geometry" />
        </mxCell>
        <mxCell id="DSBRGBkN_cT0Aw7xjU_L-58" value="" style="shape=partialRectangle;connectable=0;fillColor=none;top=0;left=0;bottom=0;right=0;editable=1;overflow=hidden;whiteSpace=wrap;html=1;" parent="DSBRGBkN_cT0Aw7xjU_L-57" vertex="1">
          <mxGeometry width="30" height="30" as="geometry">
            <mxRectangle width="30" height="30" as="alternateBounds" />
          </mxGeometry>
        </mxCell>
        <mxCell id="DSBRGBkN_cT0Aw7xjU_L-59" value="+ height: int not null" style="shape=partialRectangle;connectable=0;fillColor=none;top=0;left=0;bottom=0;right=0;align=left;spacingLeft=6;overflow=hidden;whiteSpace=wrap;html=1;" parent="DSBRGBkN_cT0Aw7xjU_L-57" vertex="1">
          <mxGeometry x="30" width="150" height="30" as="geometry">
            <mxRectangle width="150" height="30" as="alternateBounds" />
          </mxGeometry>
        </mxCell>
        <mxCell id="DSBRGBkN_cT0Aw7xjU_L-60" value="" style="shape=tableRow;horizontal=0;startSize=0;swimlaneHead=0;swimlaneBody=0;fillColor=none;collapsible=0;dropTarget=0;points=[[0,0.5],[1,0.5]];portConstraint=eastwest;top=0;left=0;right=0;bottom=0;" parent="DSBRGBkN_cT0Aw7xjU_L-47" vertex="1">
          <mxGeometry y="150" width="180" height="30" as="geometry" />
        </mxCell>
        <mxCell id="DSBRGBkN_cT0Aw7xjU_L-61" value="" style="shape=partialRectangle;connectable=0;fillColor=none;top=0;left=0;bottom=0;right=0;editable=1;overflow=hidden;whiteSpace=wrap;html=1;" parent="DSBRGBkN_cT0Aw7xjU_L-60" vertex="1">
          <mxGeometry width="30" height="30" as="geometry">
            <mxRectangle width="30" height="30" as="alternateBounds" />
          </mxGeometry>
        </mxCell>
        <mxCell id="DSBRGBkN_cT0Aw7xjU_L-62" value="+ addFormData()" style="shape=partialRectangle;connectable=0;fillColor=none;top=0;left=0;bottom=0;right=0;align=left;spacingLeft=6;overflow=hidden;whiteSpace=wrap;html=1;" parent="DSBRGBkN_cT0Aw7xjU_L-60" vertex="1">
          <mxGeometry x="30" width="150" height="30" as="geometry">
            <mxRectangle width="150" height="30" as="alternateBounds" />
          </mxGeometry>
        </mxCell>
        <mxCell id="DSBRGBkN_cT0Aw7xjU_L-63" value="&lt;span style=&quot;text-wrap-mode: nowrap;&quot;&gt;&lt;b&gt;BMI Output Table&lt;/b&gt;&lt;/span&gt;" style="shape=table;startSize=30;container=1;collapsible=1;childLayout=tableLayout;fixedRows=1;rowLines=0;fontStyle=0;align=center;resizeLast=1;html=1;whiteSpace=wrap;" parent="1" vertex="1">
          <mxGeometry x="20" y="950" width="248" height="180" as="geometry" />
        </mxCell>
        <mxCell id="DSBRGBkN_cT0Aw7xjU_L-64" value="" style="shape=tableRow;horizontal=0;startSize=0;swimlaneHead=0;swimlaneBody=0;fillColor=none;collapsible=0;dropTarget=0;points=[[0,0.5],[1,0.5]];portConstraint=eastwest;top=0;left=0;right=0;bottom=0;html=1;" parent="DSBRGBkN_cT0Aw7xjU_L-63" vertex="1">
          <mxGeometry y="30" width="248" height="30" as="geometry" />
        </mxCell>
        <mxCell id="DSBRGBkN_cT0Aw7xjU_L-65" value="" style="shape=partialRectangle;connectable=0;fillColor=none;top=0;left=0;bottom=0;right=0;fontStyle=1;overflow=hidden;html=1;whiteSpace=wrap;" parent="DSBRGBkN_cT0Aw7xjU_L-64" vertex="1">
          <mxGeometry width="60" height="30" as="geometry">
            <mxRectangle width="60" height="30" as="alternateBounds" />
          </mxGeometry>
        </mxCell>
        <mxCell id="DSBRGBkN_cT0Aw7xjU_L-66" value="+&amp;nbsp;Person_OutputID int not null" style="shape=partialRectangle;connectable=0;fillColor=none;top=0;left=0;bottom=0;right=0;align=left;spacingLeft=6;fontStyle=4;overflow=hidden;html=1;whiteSpace=wrap;" parent="DSBRGBkN_cT0Aw7xjU_L-64" vertex="1">
          <mxGeometry x="60" width="188" height="30" as="geometry">
            <mxRectangle width="188" height="30" as="alternateBounds" />
          </mxGeometry>
        </mxCell>
        <mxCell id="DSBRGBkN_cT0Aw7xjU_L-67" value="" style="shape=tableRow;horizontal=0;startSize=0;swimlaneHead=0;swimlaneBody=0;fillColor=none;collapsible=0;dropTarget=0;points=[[0,0.5],[1,0.5]];portConstraint=eastwest;top=0;left=0;right=0;bottom=1;html=1;" parent="DSBRGBkN_cT0Aw7xjU_L-63" vertex="1">
          <mxGeometry y="60" width="248" height="30" as="geometry" />
        </mxCell>
        <mxCell id="DSBRGBkN_cT0Aw7xjU_L-68" value="" style="shape=partialRectangle;connectable=0;fillColor=none;top=0;left=0;bottom=0;right=0;fontStyle=1;overflow=hidden;html=1;whiteSpace=wrap;" parent="DSBRGBkN_cT0Aw7xjU_L-67" vertex="1">
          <mxGeometry width="60" height="30" as="geometry">
            <mxRectangle width="60" height="30" as="alternateBounds" />
          </mxGeometry>
        </mxCell>
        <mxCell id="DSBRGBkN_cT0Aw7xjU_L-69" value="+ PersonId: int not null" style="shape=partialRectangle;connectable=0;fillColor=none;top=0;left=0;bottom=0;right=0;align=left;spacingLeft=6;fontStyle=4;overflow=hidden;html=1;whiteSpace=wrap;" parent="DSBRGBkN_cT0Aw7xjU_L-67" vertex="1">
          <mxGeometry x="60" width="188" height="30" as="geometry">
            <mxRectangle width="188" height="30" as="alternateBounds" />
          </mxGeometry>
        </mxCell>
        <mxCell id="DSBRGBkN_cT0Aw7xjU_L-70" value="" style="shape=tableRow;horizontal=0;startSize=0;swimlaneHead=0;swimlaneBody=0;fillColor=none;collapsible=0;dropTarget=0;points=[[0,0.5],[1,0.5]];portConstraint=eastwest;top=0;left=0;right=0;bottom=0;html=1;" parent="DSBRGBkN_cT0Aw7xjU_L-63" vertex="1">
          <mxGeometry y="90" width="248" height="30" as="geometry" />
        </mxCell>
        <mxCell id="DSBRGBkN_cT0Aw7xjU_L-71" value="" style="shape=partialRectangle;connectable=0;fillColor=none;top=0;left=0;bottom=0;right=0;editable=1;overflow=hidden;html=1;whiteSpace=wrap;" parent="DSBRGBkN_cT0Aw7xjU_L-70" vertex="1">
          <mxGeometry width="60" height="30" as="geometry">
            <mxRectangle width="60" height="30" as="alternateBounds" />
          </mxGeometry>
        </mxCell>
        <mxCell id="DSBRGBkN_cT0Aw7xjU_L-72" value="+ name_output: string(20) not null" style="shape=partialRectangle;connectable=0;fillColor=none;top=0;left=0;bottom=0;right=0;align=left;spacingLeft=6;overflow=hidden;html=1;whiteSpace=wrap;" parent="DSBRGBkN_cT0Aw7xjU_L-70" vertex="1">
          <mxGeometry x="60" width="188" height="30" as="geometry">
            <mxRectangle width="188" height="30" as="alternateBounds" />
          </mxGeometry>
        </mxCell>
        <mxCell id="DSBRGBkN_cT0Aw7xjU_L-73" value="" style="shape=tableRow;horizontal=0;startSize=0;swimlaneHead=0;swimlaneBody=0;fillColor=none;collapsible=0;dropTarget=0;points=[[0,0.5],[1,0.5]];portConstraint=eastwest;top=0;left=0;right=0;bottom=0;html=1;" parent="DSBRGBkN_cT0Aw7xjU_L-63" vertex="1">
          <mxGeometry y="120" width="248" height="30" as="geometry" />
        </mxCell>
        <mxCell id="DSBRGBkN_cT0Aw7xjU_L-74" value="" style="shape=partialRectangle;connectable=0;fillColor=none;top=0;left=0;bottom=0;right=0;editable=1;overflow=hidden;html=1;whiteSpace=wrap;" parent="DSBRGBkN_cT0Aw7xjU_L-73" vertex="1">
          <mxGeometry width="60" height="30" as="geometry">
            <mxRectangle width="60" height="30" as="alternateBounds" />
          </mxGeometry>
        </mxCell>
        <mxCell id="DSBRGBkN_cT0Aw7xjU_L-75" value="+ bmi_output: float not null&amp;nbsp;" style="shape=partialRectangle;connectable=0;fillColor=none;top=0;left=0;bottom=0;right=0;align=left;spacingLeft=6;overflow=hidden;html=1;whiteSpace=wrap;" parent="DSBRGBkN_cT0Aw7xjU_L-73" vertex="1">
          <mxGeometry x="60" width="188" height="30" as="geometry">
            <mxRectangle width="188" height="30" as="alternateBounds" />
          </mxGeometry>
        </mxCell>
        <mxCell id="DSBRGBkN_cT0Aw7xjU_L-76" value="" style="shape=tableRow;horizontal=0;startSize=0;swimlaneHead=0;swimlaneBody=0;fillColor=none;collapsible=0;dropTarget=0;points=[[0,0.5],[1,0.5]];portConstraint=eastwest;top=0;left=0;right=0;bottom=0;html=1;" parent="DSBRGBkN_cT0Aw7xjU_L-63" vertex="1">
          <mxGeometry y="150" width="248" height="30" as="geometry" />
        </mxCell>
        <mxCell id="DSBRGBkN_cT0Aw7xjU_L-77" value="" style="shape=partialRectangle;connectable=0;fillColor=none;top=0;left=0;bottom=0;right=0;editable=1;overflow=hidden;html=1;whiteSpace=wrap;" parent="DSBRGBkN_cT0Aw7xjU_L-76" vertex="1">
          <mxGeometry width="60" height="30" as="geometry">
            <mxRectangle width="60" height="30" as="alternateBounds" />
          </mxGeometry>
        </mxCell>
        <mxCell id="DSBRGBkN_cT0Aw7xjU_L-78" value="+ classification_output: string not null" style="shape=partialRectangle;connectable=0;fillColor=none;top=0;left=0;bottom=0;right=0;align=left;spacingLeft=6;overflow=hidden;html=1;whiteSpace=wrap;" parent="DSBRGBkN_cT0Aw7xjU_L-76" vertex="1">
          <mxGeometry x="60" width="188" height="30" as="geometry">
            <mxRectangle width="188" height="30" as="alternateBounds" />
          </mxGeometry>
        </mxCell>
        <mxCell id="DSBRGBkN_cT0Aw7xjU_L-79" value="" style="line;strokeWidth=1;rotatable=0;dashed=0;labelPosition=right;align=left;verticalAlign=middle;spacingTop=0;spacingLeft=6;points=[];portConstraint=eastwest;" parent="1" vertex="1">
          <mxGeometry x="49" y="885" width="181" height="10" as="geometry" />
        </mxCell>
        <mxCell id="DSBRGBkN_cT0Aw7xjU_L-80" style="edgeStyle=orthogonalEdgeStyle;rounded=0;orthogonalLoop=1;jettySize=auto;html=1;exitX=0;exitY=0.5;exitDx=0;exitDy=0;entryX=0;entryY=0.5;entryDx=0;entryDy=0;" parent="1" source="DSBRGBkN_cT0Aw7xjU_L-48" target="DSBRGBkN_cT0Aw7xjU_L-67" edge="1">
          <mxGeometry relative="1" as="geometry">
            <Array as="points">
              <mxPoint y="785" />
              <mxPoint y="1025" />
            </Array>
          </mxGeometry>
        </mxCell>
        <mxCell id="DSBRGBkN_cT0Aw7xjU_L-81" style="edgeStyle=orthogonalEdgeStyle;rounded=0;orthogonalLoop=1;jettySize=auto;html=1;exitX=0;exitY=0.5;exitDx=0;exitDy=0;entryX=0;entryY=0.5;entryDx=0;entryDy=0;" parent="1" source="rvdnsQebios95YlR8L6v-76" target="DSBRGBkN_cT0Aw7xjU_L-35" edge="1">
          <mxGeometry relative="1" as="geometry">
            <mxPoint x="320" y="1020" as="targetPoint" />
          </mxGeometry>
        </mxCell>
        <mxCell id="pzhyibcchnDHiVN7mfjO-136" value="&lt;span style=&quot;text-wrap-mode: nowrap;&quot;&gt;puppy_tbl&lt;/span&gt;" style="swimlane;fontStyle=1;align=center;verticalAlign=top;childLayout=stackLayout;horizontal=1;startSize=26;horizontalStack=0;resizeParent=1;resizeParentMax=0;resizeLast=0;collapsible=1;marginBottom=0;whiteSpace=wrap;html=1;" parent="1" vertex="1">
          <mxGeometry x="-730" y="760" width="190" height="326" as="geometry" />
        </mxCell>
        <mxCell id="pzhyibcchnDHiVN7mfjO-137" value="+ puppy_id: number" style="text;strokeColor=none;fillColor=none;align=left;verticalAlign=top;spacingLeft=4;spacingRight=4;overflow=hidden;rotatable=0;points=[[0,0.5],[1,0.5]];portConstraint=eastwest;whiteSpace=wrap;html=1;" parent="pzhyibcchnDHiVN7mfjO-136" vertex="1">
          <mxGeometry y="26" width="190" height="26" as="geometry" />
        </mxCell>
        <mxCell id="pzhyibcchnDHiVN7mfjO-140" value="+ puppy_name: string not null" style="text;strokeColor=none;fillColor=none;align=left;verticalAlign=top;spacingLeft=4;spacingRight=4;overflow=hidden;rotatable=0;points=[[0,0.5],[1,0.5]];portConstraint=eastwest;whiteSpace=wrap;html=1;" parent="pzhyibcchnDHiVN7mfjO-136" vertex="1">
          <mxGeometry y="52" width="190" height="26" as="geometry" />
        </mxCell>
        <mxCell id="pzhyibcchnDHiVN7mfjO-141" value="+ puppy_breed: string not null" style="text;strokeColor=none;fillColor=none;align=left;verticalAlign=top;spacingLeft=4;spacingRight=4;overflow=hidden;rotatable=0;points=[[0,0.5],[1,0.5]];portConstraint=eastwest;whiteSpace=wrap;html=1;" parent="pzhyibcchnDHiVN7mfjO-136" vertex="1">
          <mxGeometry y="78" width="190" height="26" as="geometry" />
        </mxCell>
        <mxCell id="pzhyibcchnDHiVN7mfjO-142" value="+ puppy_age: int not null" style="text;strokeColor=none;fillColor=none;align=left;verticalAlign=top;spacingLeft=4;spacingRight=4;overflow=hidden;rotatable=0;points=[[0,0.5],[1,0.5]];portConstraint=eastwest;whiteSpace=wrap;html=1;" parent="pzhyibcchnDHiVN7mfjO-136" vertex="1">
          <mxGeometry y="104" width="190" height="26" as="geometry" />
        </mxCell>
        <mxCell id="yyfjI3sVly6lCHY9R30w-7" value="+ puppy_gender: int not null" style="text;strokeColor=none;fillColor=none;align=left;verticalAlign=top;spacingLeft=4;spacingRight=4;overflow=hidden;rotatable=0;points=[[0,0.5],[1,0.5]];portConstraint=eastwest;whiteSpace=wrap;html=1;" parent="pzhyibcchnDHiVN7mfjO-136" vertex="1">
          <mxGeometry y="130" width="190" height="26" as="geometry" />
        </mxCell>
        <mxCell id="9QqRALV-iCBof_fZKGQ2-74" value="+ puppy_description: string not null" style="text;strokeColor=none;fillColor=none;align=left;verticalAlign=top;spacingLeft=4;spacingRight=4;overflow=hidden;rotatable=0;points=[[0,0.5],[1,0.5]];portConstraint=eastwest;whiteSpace=wrap;html=1;" vertex="1" parent="pzhyibcchnDHiVN7mfjO-136">
          <mxGeometry y="156" width="190" height="32" as="geometry" />
        </mxCell>
        <mxCell id="pzhyibcchnDHiVN7mfjO-143" value="+ owner_tbl_id: int" style="text;strokeColor=none;fillColor=none;align=left;verticalAlign=top;spacingLeft=4;spacingRight=4;overflow=hidden;rotatable=0;points=[[0,0.5],[1,0.5]];portConstraint=eastwest;whiteSpace=wrap;html=1;" parent="pzhyibcchnDHiVN7mfjO-136" vertex="1">
          <mxGeometry y="188" width="190" height="26" as="geometry" />
        </mxCell>
        <mxCell id="pzhyibcchnDHiVN7mfjO-138" value="" style="line;strokeWidth=1;fillColor=none;align=left;verticalAlign=middle;spacingTop=-1;spacingLeft=3;spacingRight=3;rotatable=0;labelPosition=right;points=[];portConstraint=eastwest;strokeColor=inherit;" parent="pzhyibcchnDHiVN7mfjO-136" vertex="1">
          <mxGeometry y="214" width="190" height="8" as="geometry" />
        </mxCell>
        <mxCell id="pzhyibcchnDHiVN7mfjO-139" value="+ addPuppy(type):" style="text;strokeColor=none;fillColor=none;align=left;verticalAlign=top;spacingLeft=4;spacingRight=4;overflow=hidden;rotatable=0;points=[[0,0.5],[1,0.5]];portConstraint=eastwest;whiteSpace=wrap;html=1;" parent="pzhyibcchnDHiVN7mfjO-136" vertex="1">
          <mxGeometry y="222" width="190" height="26" as="geometry" />
        </mxCell>
        <mxCell id="yyfjI3sVly6lCHY9R30w-8" value="+ displayPuppy(type): attribute" style="text;strokeColor=none;fillColor=none;align=left;verticalAlign=top;spacingLeft=4;spacingRight=4;overflow=hidden;rotatable=0;points=[[0,0.5],[1,0.5]];portConstraint=eastwest;whiteSpace=wrap;html=1;" parent="pzhyibcchnDHiVN7mfjO-136" vertex="1">
          <mxGeometry y="248" width="190" height="26" as="geometry" />
        </mxCell>
        <mxCell id="pzhyibcchnDHiVN7mfjO-144" value="+ deletePuppy(type):" style="text;strokeColor=none;fillColor=none;align=left;verticalAlign=top;spacingLeft=4;spacingRight=4;overflow=hidden;rotatable=0;points=[[0,0.5],[1,0.5]];portConstraint=eastwest;whiteSpace=wrap;html=1;" parent="pzhyibcchnDHiVN7mfjO-136" vertex="1">
          <mxGeometry y="274" width="190" height="26" as="geometry" />
        </mxCell>
        <mxCell id="pzhyibcchnDHiVN7mfjO-145" value="+ updatePuppy(type):" style="text;strokeColor=none;fillColor=none;align=left;verticalAlign=top;spacingLeft=4;spacingRight=4;overflow=hidden;rotatable=0;points=[[0,0.5],[1,0.5]];portConstraint=eastwest;whiteSpace=wrap;html=1;" parent="pzhyibcchnDHiVN7mfjO-136" vertex="1">
          <mxGeometry y="300" width="190" height="26" as="geometry" />
        </mxCell>
        <mxCell id="pzhyibcchnDHiVN7mfjO-146" value="&lt;span style=&quot;text-wrap-mode: nowrap;&quot;&gt;owner_tbl&lt;/span&gt;" style="swimlane;fontStyle=1;align=center;verticalAlign=top;childLayout=stackLayout;horizontal=1;startSize=26;horizontalStack=0;resizeParent=1;resizeParentMax=0;resizeLast=0;collapsible=1;marginBottom=0;whiteSpace=wrap;html=1;" parent="1" vertex="1">
          <mxGeometry x="-390" y="782" width="160" height="208" as="geometry" />
        </mxCell>
        <mxCell id="pzhyibcchnDHiVN7mfjO-147" value="+ owner_id: int not null" style="text;strokeColor=none;fillColor=none;align=left;verticalAlign=top;spacingLeft=4;spacingRight=4;overflow=hidden;rotatable=0;points=[[0,0.5],[1,0.5]];portConstraint=eastwest;whiteSpace=wrap;html=1;" parent="pzhyibcchnDHiVN7mfjO-146" vertex="1">
          <mxGeometry y="26" width="160" height="26" as="geometry" />
        </mxCell>
        <mxCell id="pzhyibcchnDHiVN7mfjO-150" value="+ owner_name: string not null" style="text;strokeColor=none;fillColor=none;align=left;verticalAlign=top;spacingLeft=4;spacingRight=4;overflow=hidden;rotatable=0;points=[[0,0.5],[1,0.5]];portConstraint=eastwest;whiteSpace=wrap;html=1;" parent="pzhyibcchnDHiVN7mfjO-146" vertex="1">
          <mxGeometry y="52" width="160" height="38" as="geometry" />
        </mxCell>
        <mxCell id="pzhyibcchnDHiVN7mfjO-151" value="+ owner_contact: int not null unique" style="text;strokeColor=none;fillColor=none;align=left;verticalAlign=top;spacingLeft=4;spacingRight=4;overflow=hidden;rotatable=0;points=[[0,0.5],[1,0.5]];portConstraint=eastwest;whiteSpace=wrap;html=1;" parent="pzhyibcchnDHiVN7mfjO-146" vertex="1">
          <mxGeometry y="90" width="160" height="40" as="geometry" />
        </mxCell>
        <mxCell id="9QqRALV-iCBof_fZKGQ2-75" value="+ owner_address: string not null" style="text;strokeColor=none;fillColor=none;align=left;verticalAlign=top;spacingLeft=4;spacingRight=4;overflow=hidden;rotatable=0;points=[[0,0.5],[1,0.5]];portConstraint=eastwest;whiteSpace=wrap;html=1;" vertex="1" parent="pzhyibcchnDHiVN7mfjO-146">
          <mxGeometry y="130" width="160" height="42" as="geometry" />
        </mxCell>
        <mxCell id="pzhyibcchnDHiVN7mfjO-148" value="" style="line;strokeWidth=1;fillColor=none;align=left;verticalAlign=middle;spacingTop=-1;spacingLeft=3;spacingRight=3;rotatable=0;labelPosition=right;points=[];portConstraint=eastwest;strokeColor=inherit;" parent="pzhyibcchnDHiVN7mfjO-146" vertex="1">
          <mxGeometry y="172" width="160" height="8" as="geometry" />
        </mxCell>
        <mxCell id="pzhyibcchnDHiVN7mfjO-149" value="+ addOwner(type):&amp;nbsp;" style="text;strokeColor=none;fillColor=none;align=left;verticalAlign=top;spacingLeft=4;spacingRight=4;overflow=hidden;rotatable=0;points=[[0,0.5],[1,0.5]];portConstraint=eastwest;whiteSpace=wrap;html=1;" parent="pzhyibcchnDHiVN7mfjO-146" vertex="1">
          <mxGeometry y="180" width="160" height="28" as="geometry" />
        </mxCell>
        <mxCell id="pzhyibcchnDHiVN7mfjO-152" style="edgeStyle=orthogonalEdgeStyle;rounded=0;orthogonalLoop=1;jettySize=auto;html=1;exitX=0;exitY=0.5;exitDx=0;exitDy=0;entryX=1;entryY=0.5;entryDx=0;entryDy=0;" parent="1" source="pzhyibcchnDHiVN7mfjO-147" target="pzhyibcchnDHiVN7mfjO-143" edge="1">
          <mxGeometry relative="1" as="geometry" />
        </mxCell>
        <mxCell id="pzhyibcchnDHiVN7mfjO-153" value="&lt;b&gt;ERD&lt;/b&gt;" style="text;html=1;align=center;verticalAlign=middle;resizable=0;points=[];autosize=1;strokeColor=none;fillColor=none;" parent="1" vertex="1">
          <mxGeometry x="-490" y="60" width="50" height="30" as="geometry" />
        </mxCell>
        <mxCell id="pzhyibcchnDHiVN7mfjO-154" value="&lt;b&gt;Data set Diagram&lt;/b&gt;" style="text;html=1;align=center;verticalAlign=middle;resizable=0;points=[];autosize=1;strokeColor=none;fillColor=none;" parent="1" vertex="1">
          <mxGeometry x="-500" y="380" width="120" height="30" as="geometry" />
        </mxCell>
        <mxCell id="pzhyibcchnDHiVN7mfjO-155" value="&lt;b&gt;Class Diagram&lt;/b&gt;" style="text;html=1;align=center;verticalAlign=middle;resizable=0;points=[];autosize=1;strokeColor=none;fillColor=none;" parent="1" vertex="1">
          <mxGeometry x="-520" y="720" width="110" height="30" as="geometry" />
        </mxCell>
        <mxCell id="9QqRALV-iCBof_fZKGQ2-1" value="puppy_tbl" style="shape=table;startSize=30;container=1;collapsible=1;childLayout=tableLayout;fixedRows=1;rowLines=0;fontStyle=1;align=center;resizeLast=1;html=1;" vertex="1" parent="1">
          <mxGeometry x="-730" y="100" width="249.0850000000002" height="265.1666666666673" as="geometry" />
        </mxCell>
        <mxCell id="9QqRALV-iCBof_fZKGQ2-2" value="" style="shape=tableRow;horizontal=0;startSize=0;swimlaneHead=0;swimlaneBody=0;fillColor=none;collapsible=0;dropTarget=0;points=[[0,0.5],[1,0.5]];portConstraint=eastwest;top=0;left=0;right=0;bottom=1;" vertex="1" parent="9QqRALV-iCBof_fZKGQ2-1">
          <mxGeometry y="30" width="249.0850000000002" height="30" as="geometry" />
        </mxCell>
        <mxCell id="9QqRALV-iCBof_fZKGQ2-3" value="PK" style="shape=partialRectangle;connectable=0;fillColor=none;top=0;left=0;bottom=0;right=0;fontStyle=1;overflow=hidden;whiteSpace=wrap;html=1;" vertex="1" parent="9QqRALV-iCBof_fZKGQ2-2">
          <mxGeometry width="30" height="30" as="geometry">
            <mxRectangle width="30" height="30" as="alternateBounds" />
          </mxGeometry>
        </mxCell>
        <mxCell id="9QqRALV-iCBof_fZKGQ2-4" value="puppy_id: int not null" style="shape=partialRectangle;connectable=0;fillColor=none;top=0;left=0;bottom=0;right=0;align=left;spacingLeft=6;fontStyle=5;overflow=hidden;whiteSpace=wrap;html=1;" vertex="1" parent="9QqRALV-iCBof_fZKGQ2-2">
          <mxGeometry x="30" width="219.0850000000002" height="30" as="geometry">
            <mxRectangle width="219.0850000000002" height="30" as="alternateBounds" />
          </mxGeometry>
        </mxCell>
        <mxCell id="9QqRALV-iCBof_fZKGQ2-5" value="" style="shape=tableRow;horizontal=0;startSize=0;swimlaneHead=0;swimlaneBody=0;fillColor=none;collapsible=0;dropTarget=0;points=[[0,0.5],[1,0.5]];portConstraint=eastwest;top=0;left=0;right=0;bottom=0;" vertex="1" parent="9QqRALV-iCBof_fZKGQ2-1">
          <mxGeometry y="60" width="249.0850000000002" height="30" as="geometry" />
        </mxCell>
        <mxCell id="9QqRALV-iCBof_fZKGQ2-6" value="" style="shape=partialRectangle;connectable=0;fillColor=none;top=0;left=0;bottom=0;right=0;editable=1;overflow=hidden;whiteSpace=wrap;html=1;" vertex="1" parent="9QqRALV-iCBof_fZKGQ2-5">
          <mxGeometry width="30" height="30" as="geometry">
            <mxRectangle width="30" height="30" as="alternateBounds" />
          </mxGeometry>
        </mxCell>
        <mxCell id="9QqRALV-iCBof_fZKGQ2-7" value="puppy_name: string (32) not null" style="shape=partialRectangle;connectable=0;fillColor=none;top=0;left=0;bottom=0;right=0;align=left;spacingLeft=6;overflow=hidden;whiteSpace=wrap;html=1;" vertex="1" parent="9QqRALV-iCBof_fZKGQ2-5">
          <mxGeometry x="30" width="219.0850000000002" height="30" as="geometry">
            <mxRectangle width="219.0850000000002" height="30" as="alternateBounds" />
          </mxGeometry>
        </mxCell>
        <mxCell id="9QqRALV-iCBof_fZKGQ2-8" value="" style="shape=tableRow;horizontal=0;startSize=0;swimlaneHead=0;swimlaneBody=0;fillColor=none;collapsible=0;dropTarget=0;points=[[0,0.5],[1,0.5]];portConstraint=eastwest;top=0;left=0;right=0;bottom=0;" vertex="1" parent="9QqRALV-iCBof_fZKGQ2-1">
          <mxGeometry y="90" width="249.0850000000002" height="30" as="geometry" />
        </mxCell>
        <mxCell id="9QqRALV-iCBof_fZKGQ2-9" value="" style="shape=partialRectangle;connectable=0;fillColor=none;top=0;left=0;bottom=0;right=0;editable=1;overflow=hidden;whiteSpace=wrap;html=1;" vertex="1" parent="9QqRALV-iCBof_fZKGQ2-8">
          <mxGeometry width="30" height="30" as="geometry">
            <mxRectangle width="30" height="30" as="alternateBounds" />
          </mxGeometry>
        </mxCell>
        <mxCell id="9QqRALV-iCBof_fZKGQ2-10" value="puppy_breed: string (32) not null&amp;nbsp;" style="shape=partialRectangle;connectable=0;fillColor=none;top=0;left=0;bottom=0;right=0;align=left;spacingLeft=6;overflow=hidden;whiteSpace=wrap;html=1;" vertex="1" parent="9QqRALV-iCBof_fZKGQ2-8">
          <mxGeometry x="30" width="219.0850000000002" height="30" as="geometry">
            <mxRectangle width="219.0850000000002" height="30" as="alternateBounds" />
          </mxGeometry>
        </mxCell>
        <mxCell id="9QqRALV-iCBof_fZKGQ2-11" value="" style="shape=tableRow;horizontal=0;startSize=0;swimlaneHead=0;swimlaneBody=0;fillColor=none;collapsible=0;dropTarget=0;points=[[0,0.5],[1,0.5]];portConstraint=eastwest;top=0;left=0;right=0;bottom=0;" vertex="1" parent="9QqRALV-iCBof_fZKGQ2-1">
          <mxGeometry y="120" width="249.0850000000002" height="30" as="geometry" />
        </mxCell>
        <mxCell id="9QqRALV-iCBof_fZKGQ2-12" value="" style="shape=partialRectangle;connectable=0;fillColor=none;top=0;left=0;bottom=0;right=0;editable=1;overflow=hidden;" vertex="1" parent="9QqRALV-iCBof_fZKGQ2-11">
          <mxGeometry width="30" height="30" as="geometry">
            <mxRectangle width="30" height="30" as="alternateBounds" />
          </mxGeometry>
        </mxCell>
        <mxCell id="9QqRALV-iCBof_fZKGQ2-13" value="puppy_age: int (2) not null" style="shape=partialRectangle;connectable=0;fillColor=none;top=0;left=0;bottom=0;right=0;align=left;spacingLeft=6;overflow=hidden;" vertex="1" parent="9QqRALV-iCBof_fZKGQ2-11">
          <mxGeometry x="30" width="219.0850000000002" height="30" as="geometry">
            <mxRectangle width="219.0850000000002" height="30" as="alternateBounds" />
          </mxGeometry>
        </mxCell>
        <mxCell id="9QqRALV-iCBof_fZKGQ2-14" value="" style="shape=tableRow;horizontal=0;startSize=0;swimlaneHead=0;swimlaneBody=0;fillColor=none;collapsible=0;dropTarget=0;points=[[0,0.5],[1,0.5]];portConstraint=eastwest;top=0;left=0;right=0;bottom=0;" vertex="1" parent="9QqRALV-iCBof_fZKGQ2-1">
          <mxGeometry y="150" width="249.0850000000002" height="34" as="geometry" />
        </mxCell>
        <mxCell id="9QqRALV-iCBof_fZKGQ2-15" value="" style="shape=partialRectangle;connectable=0;fillColor=none;top=0;left=0;bottom=0;right=0;editable=1;overflow=hidden;" vertex="1" parent="9QqRALV-iCBof_fZKGQ2-14">
          <mxGeometry width="30" height="34" as="geometry">
            <mxRectangle width="30" height="34" as="alternateBounds" />
          </mxGeometry>
        </mxCell>
        <mxCell id="9QqRALV-iCBof_fZKGQ2-16" value="puppy_gender: int (1) not null" style="shape=partialRectangle;connectable=0;fillColor=none;top=0;left=0;bottom=0;right=0;align=left;spacingLeft=6;overflow=hidden;" vertex="1" parent="9QqRALV-iCBof_fZKGQ2-14">
          <mxGeometry x="30" width="219.0850000000002" height="34" as="geometry">
            <mxRectangle width="219.0850000000002" height="34" as="alternateBounds" />
          </mxGeometry>
        </mxCell>
        <mxCell id="9QqRALV-iCBof_fZKGQ2-17" value="" style="shape=tableRow;horizontal=0;startSize=0;swimlaneHead=0;swimlaneBody=0;fillColor=none;collapsible=0;dropTarget=0;points=[[0,0.5],[1,0.5]];portConstraint=eastwest;top=0;left=0;right=0;bottom=0;" vertex="1" parent="9QqRALV-iCBof_fZKGQ2-1">
          <mxGeometry y="184" width="249.0850000000002" height="30" as="geometry" />
        </mxCell>
        <mxCell id="9QqRALV-iCBof_fZKGQ2-18" value="" style="shape=partialRectangle;connectable=0;fillColor=none;top=0;left=0;bottom=0;right=0;editable=1;overflow=hidden;" vertex="1" parent="9QqRALV-iCBof_fZKGQ2-17">
          <mxGeometry width="30" height="30" as="geometry">
            <mxRectangle width="30" height="30" as="alternateBounds" />
          </mxGeometry>
        </mxCell>
        <mxCell id="9QqRALV-iCBof_fZKGQ2-19" value="puppy_description: string (64) not null" style="shape=partialRectangle;connectable=0;fillColor=none;top=0;left=0;bottom=0;right=0;align=left;spacingLeft=6;overflow=hidden;" vertex="1" parent="9QqRALV-iCBof_fZKGQ2-17">
          <mxGeometry x="30" width="219.0850000000002" height="30" as="geometry">
            <mxRectangle width="219.0850000000002" height="30" as="alternateBounds" />
          </mxGeometry>
        </mxCell>
        <mxCell id="9QqRALV-iCBof_fZKGQ2-20" value="" style="shape=tableRow;horizontal=0;startSize=0;swimlaneHead=0;swimlaneBody=0;fillColor=none;collapsible=0;dropTarget=0;points=[[0,0.5],[1,0.5]];portConstraint=eastwest;top=0;left=0;right=0;bottom=0;" vertex="1" parent="9QqRALV-iCBof_fZKGQ2-1">
          <mxGeometry y="214" width="249.0850000000002" height="51" as="geometry" />
        </mxCell>
        <mxCell id="9QqRALV-iCBof_fZKGQ2-21" value="FK" style="shape=partialRectangle;connectable=0;fillColor=none;top=0;left=0;bottom=0;right=0;editable=1;overflow=hidden;whiteSpace=wrap;html=1;" vertex="1" parent="9QqRALV-iCBof_fZKGQ2-20">
          <mxGeometry width="30" height="51" as="geometry">
            <mxRectangle width="30" height="51" as="alternateBounds" />
          </mxGeometry>
        </mxCell>
        <mxCell id="9QqRALV-iCBof_fZKGQ2-22" value="owner_tbl_id: int" style="shape=partialRectangle;connectable=0;fillColor=none;top=0;left=0;bottom=0;right=0;align=left;spacingLeft=6;overflow=hidden;whiteSpace=wrap;html=1;" vertex="1" parent="9QqRALV-iCBof_fZKGQ2-20">
          <mxGeometry x="30" width="219.0850000000002" height="51" as="geometry">
            <mxRectangle width="219.0850000000002" height="51" as="alternateBounds" />
          </mxGeometry>
        </mxCell>
        <mxCell id="9QqRALV-iCBof_fZKGQ2-23" value="owner_tbl" style="shape=table;startSize=23;container=1;collapsible=1;childLayout=tableLayout;fixedRows=1;rowLines=0;fontStyle=1;align=center;resizeLast=1;html=1;" vertex="1" parent="1">
          <mxGeometry x="-398.54" y="100" width="270.13" height="135" as="geometry" />
        </mxCell>
        <mxCell id="9QqRALV-iCBof_fZKGQ2-24" value="" style="shape=tableRow;horizontal=0;startSize=0;swimlaneHead=0;swimlaneBody=0;fillColor=none;collapsible=0;dropTarget=0;points=[[0,0.5],[1,0.5]];portConstraint=eastwest;top=0;left=0;right=0;bottom=1;" vertex="1" parent="9QqRALV-iCBof_fZKGQ2-23">
          <mxGeometry y="23" width="270.13" height="31" as="geometry" />
        </mxCell>
        <mxCell id="9QqRALV-iCBof_fZKGQ2-25" value="PK" style="shape=partialRectangle;connectable=0;fillColor=none;top=0;left=0;bottom=0;right=0;fontStyle=1;overflow=hidden;whiteSpace=wrap;html=1;" vertex="1" parent="9QqRALV-iCBof_fZKGQ2-24">
          <mxGeometry width="30" height="31" as="geometry">
            <mxRectangle width="30" height="31" as="alternateBounds" />
          </mxGeometry>
        </mxCell>
        <mxCell id="9QqRALV-iCBof_fZKGQ2-26" value="owner_id: int not null" style="shape=partialRectangle;connectable=0;fillColor=none;top=0;left=0;bottom=0;right=0;align=left;spacingLeft=6;fontStyle=5;overflow=hidden;whiteSpace=wrap;html=1;" vertex="1" parent="9QqRALV-iCBof_fZKGQ2-24">
          <mxGeometry x="30" width="240.13" height="31" as="geometry">
            <mxRectangle width="240.13" height="31" as="alternateBounds" />
          </mxGeometry>
        </mxCell>
        <mxCell id="9QqRALV-iCBof_fZKGQ2-27" value="" style="shape=tableRow;horizontal=0;startSize=0;swimlaneHead=0;swimlaneBody=0;fillColor=none;collapsible=0;dropTarget=0;points=[[0,0.5],[1,0.5]];portConstraint=eastwest;top=0;left=0;right=0;bottom=0;" vertex="1" parent="9QqRALV-iCBof_fZKGQ2-23">
          <mxGeometry y="54" width="270.13" height="26" as="geometry" />
        </mxCell>
        <mxCell id="9QqRALV-iCBof_fZKGQ2-28" value="" style="shape=partialRectangle;connectable=0;fillColor=none;top=0;left=0;bottom=0;right=0;editable=1;overflow=hidden;whiteSpace=wrap;html=1;" vertex="1" parent="9QqRALV-iCBof_fZKGQ2-27">
          <mxGeometry width="30" height="26" as="geometry">
            <mxRectangle width="30" height="26" as="alternateBounds" />
          </mxGeometry>
        </mxCell>
        <mxCell id="9QqRALV-iCBof_fZKGQ2-29" value="owner_name: string (32) not null" style="shape=partialRectangle;connectable=0;fillColor=none;top=0;left=0;bottom=0;right=0;align=left;spacingLeft=6;overflow=hidden;whiteSpace=wrap;html=1;" vertex="1" parent="9QqRALV-iCBof_fZKGQ2-27">
          <mxGeometry x="30" width="240.13" height="26" as="geometry">
            <mxRectangle width="240.13" height="26" as="alternateBounds" />
          </mxGeometry>
        </mxCell>
        <mxCell id="9QqRALV-iCBof_fZKGQ2-30" value="" style="shape=tableRow;horizontal=0;startSize=0;swimlaneHead=0;swimlaneBody=0;fillColor=none;collapsible=0;dropTarget=0;points=[[0,0.5],[1,0.5]];portConstraint=eastwest;top=0;left=0;right=0;bottom=0;" vertex="1" parent="9QqRALV-iCBof_fZKGQ2-23">
          <mxGeometry y="80" width="270.13" height="30" as="geometry" />
        </mxCell>
        <mxCell id="9QqRALV-iCBof_fZKGQ2-31" value="" style="shape=partialRectangle;connectable=0;fillColor=none;top=0;left=0;bottom=0;right=0;editable=1;overflow=hidden;whiteSpace=wrap;html=1;" vertex="1" parent="9QqRALV-iCBof_fZKGQ2-30">
          <mxGeometry width="30" height="30" as="geometry">
            <mxRectangle width="30" height="30" as="alternateBounds" />
          </mxGeometry>
        </mxCell>
        <mxCell id="9QqRALV-iCBof_fZKGQ2-32" value="owner_contact: int (11) not null Unique" style="shape=partialRectangle;connectable=0;fillColor=none;top=0;left=0;bottom=0;right=0;align=left;spacingLeft=6;overflow=hidden;whiteSpace=wrap;html=1;" vertex="1" parent="9QqRALV-iCBof_fZKGQ2-30">
          <mxGeometry x="30" width="240.13" height="30" as="geometry">
            <mxRectangle width="240.13" height="30" as="alternateBounds" />
          </mxGeometry>
        </mxCell>
        <mxCell id="9QqRALV-iCBof_fZKGQ2-33" value="" style="shape=tableRow;horizontal=0;startSize=0;swimlaneHead=0;swimlaneBody=0;fillColor=none;collapsible=0;dropTarget=0;points=[[0,0.5],[1,0.5]];portConstraint=eastwest;top=0;left=0;right=0;bottom=0;" vertex="1" parent="9QqRALV-iCBof_fZKGQ2-23">
          <mxGeometry y="110" width="270.13" height="25" as="geometry" />
        </mxCell>
        <mxCell id="9QqRALV-iCBof_fZKGQ2-34" value="" style="shape=partialRectangle;connectable=0;fillColor=none;top=0;left=0;bottom=0;right=0;editable=1;overflow=hidden;whiteSpace=wrap;html=1;" vertex="1" parent="9QqRALV-iCBof_fZKGQ2-33">
          <mxGeometry width="30" height="25" as="geometry">
            <mxRectangle width="30" height="25" as="alternateBounds" />
          </mxGeometry>
        </mxCell>
        <mxCell id="9QqRALV-iCBof_fZKGQ2-35" value="owner_address: string (64) not null" style="shape=partialRectangle;connectable=0;fillColor=none;top=0;left=0;bottom=0;right=0;align=left;spacingLeft=6;overflow=hidden;whiteSpace=wrap;html=1;" vertex="1" parent="9QqRALV-iCBof_fZKGQ2-33">
          <mxGeometry x="30" width="240.13" height="25" as="geometry">
            <mxRectangle width="240.13" height="25" as="alternateBounds" />
          </mxGeometry>
        </mxCell>
        <mxCell id="9QqRALV-iCBof_fZKGQ2-36" style="edgeStyle=orthogonalEdgeStyle;rounded=0;orthogonalLoop=1;jettySize=auto;html=1;exitX=0;exitY=0.5;exitDx=0;exitDy=0;entryX=1;entryY=0.5;entryDx=0;entryDy=0;endArrow=ERoneToMany;endFill=0;startArrow=ERone;startFill=0;" edge="1" parent="1" source="9QqRALV-iCBof_fZKGQ2-24" target="9QqRALV-iCBof_fZKGQ2-20">
          <mxGeometry relative="1" as="geometry" />
        </mxCell>
        <mxCell id="9QqRALV-iCBof_fZKGQ2-37" value="puppy_tbl" style="shape=table;startSize=30;container=1;collapsible=1;childLayout=tableLayout;fixedRows=1;rowLines=0;fontStyle=1;align=center;resizeLast=1;html=1;" vertex="1" parent="1">
          <mxGeometry x="-730" y="420" width="249.0850000000002" height="265.1666666666673" as="geometry" />
        </mxCell>
        <mxCell id="9QqRALV-iCBof_fZKGQ2-38" value="" style="shape=tableRow;horizontal=0;startSize=0;swimlaneHead=0;swimlaneBody=0;fillColor=none;collapsible=0;dropTarget=0;points=[[0,0.5],[1,0.5]];portConstraint=eastwest;top=0;left=0;right=0;bottom=1;" vertex="1" parent="9QqRALV-iCBof_fZKGQ2-37">
          <mxGeometry y="30" width="249.0850000000002" height="30" as="geometry" />
        </mxCell>
        <mxCell id="9QqRALV-iCBof_fZKGQ2-39" value="" style="shape=partialRectangle;connectable=0;fillColor=none;top=0;left=0;bottom=0;right=0;fontStyle=1;overflow=hidden;whiteSpace=wrap;html=1;" vertex="1" parent="9QqRALV-iCBof_fZKGQ2-38">
          <mxGeometry width="30" height="30" as="geometry">
            <mxRectangle width="30" height="30" as="alternateBounds" />
          </mxGeometry>
        </mxCell>
        <mxCell id="9QqRALV-iCBof_fZKGQ2-40" value="puppy_id: int not null" style="shape=partialRectangle;connectable=0;fillColor=none;top=0;left=0;bottom=0;right=0;align=left;spacingLeft=6;fontStyle=5;overflow=hidden;whiteSpace=wrap;html=1;" vertex="1" parent="9QqRALV-iCBof_fZKGQ2-38">
          <mxGeometry x="30" width="219.0850000000002" height="30" as="geometry">
            <mxRectangle width="219.0850000000002" height="30" as="alternateBounds" />
          </mxGeometry>
        </mxCell>
        <mxCell id="9QqRALV-iCBof_fZKGQ2-41" value="" style="shape=tableRow;horizontal=0;startSize=0;swimlaneHead=0;swimlaneBody=0;fillColor=none;collapsible=0;dropTarget=0;points=[[0,0.5],[1,0.5]];portConstraint=eastwest;top=0;left=0;right=0;bottom=0;" vertex="1" parent="9QqRALV-iCBof_fZKGQ2-37">
          <mxGeometry y="60" width="249.0850000000002" height="30" as="geometry" />
        </mxCell>
        <mxCell id="9QqRALV-iCBof_fZKGQ2-42" value="" style="shape=partialRectangle;connectable=0;fillColor=none;top=0;left=0;bottom=0;right=0;editable=1;overflow=hidden;whiteSpace=wrap;html=1;" vertex="1" parent="9QqRALV-iCBof_fZKGQ2-41">
          <mxGeometry width="30" height="30" as="geometry">
            <mxRectangle width="30" height="30" as="alternateBounds" />
          </mxGeometry>
        </mxCell>
        <mxCell id="9QqRALV-iCBof_fZKGQ2-43" value="puppy_name: string (32) not null" style="shape=partialRectangle;connectable=0;fillColor=none;top=0;left=0;bottom=0;right=0;align=left;spacingLeft=6;overflow=hidden;whiteSpace=wrap;html=1;" vertex="1" parent="9QqRALV-iCBof_fZKGQ2-41">
          <mxGeometry x="30" width="219.0850000000002" height="30" as="geometry">
            <mxRectangle width="219.0850000000002" height="30" as="alternateBounds" />
          </mxGeometry>
        </mxCell>
        <mxCell id="9QqRALV-iCBof_fZKGQ2-44" value="" style="shape=tableRow;horizontal=0;startSize=0;swimlaneHead=0;swimlaneBody=0;fillColor=none;collapsible=0;dropTarget=0;points=[[0,0.5],[1,0.5]];portConstraint=eastwest;top=0;left=0;right=0;bottom=0;" vertex="1" parent="9QqRALV-iCBof_fZKGQ2-37">
          <mxGeometry y="90" width="249.0850000000002" height="30" as="geometry" />
        </mxCell>
        <mxCell id="9QqRALV-iCBof_fZKGQ2-45" value="" style="shape=partialRectangle;connectable=0;fillColor=none;top=0;left=0;bottom=0;right=0;editable=1;overflow=hidden;whiteSpace=wrap;html=1;" vertex="1" parent="9QqRALV-iCBof_fZKGQ2-44">
          <mxGeometry width="30" height="30" as="geometry">
            <mxRectangle width="30" height="30" as="alternateBounds" />
          </mxGeometry>
        </mxCell>
        <mxCell id="9QqRALV-iCBof_fZKGQ2-46" value="puppy_breed: string (32) not null&amp;nbsp;" style="shape=partialRectangle;connectable=0;fillColor=none;top=0;left=0;bottom=0;right=0;align=left;spacingLeft=6;overflow=hidden;whiteSpace=wrap;html=1;" vertex="1" parent="9QqRALV-iCBof_fZKGQ2-44">
          <mxGeometry x="30" width="219.0850000000002" height="30" as="geometry">
            <mxRectangle width="219.0850000000002" height="30" as="alternateBounds" />
          </mxGeometry>
        </mxCell>
        <mxCell id="9QqRALV-iCBof_fZKGQ2-47" value="" style="shape=tableRow;horizontal=0;startSize=0;swimlaneHead=0;swimlaneBody=0;fillColor=none;collapsible=0;dropTarget=0;points=[[0,0.5],[1,0.5]];portConstraint=eastwest;top=0;left=0;right=0;bottom=0;" vertex="1" parent="9QqRALV-iCBof_fZKGQ2-37">
          <mxGeometry y="120" width="249.0850000000002" height="30" as="geometry" />
        </mxCell>
        <mxCell id="9QqRALV-iCBof_fZKGQ2-48" value="" style="shape=partialRectangle;connectable=0;fillColor=none;top=0;left=0;bottom=0;right=0;editable=1;overflow=hidden;" vertex="1" parent="9QqRALV-iCBof_fZKGQ2-47">
          <mxGeometry width="30" height="30" as="geometry">
            <mxRectangle width="30" height="30" as="alternateBounds" />
          </mxGeometry>
        </mxCell>
        <mxCell id="9QqRALV-iCBof_fZKGQ2-49" value="puppy_age: int (2) not null" style="shape=partialRectangle;connectable=0;fillColor=none;top=0;left=0;bottom=0;right=0;align=left;spacingLeft=6;overflow=hidden;" vertex="1" parent="9QqRALV-iCBof_fZKGQ2-47">
          <mxGeometry x="30" width="219.0850000000002" height="30" as="geometry">
            <mxRectangle width="219.0850000000002" height="30" as="alternateBounds" />
          </mxGeometry>
        </mxCell>
        <mxCell id="9QqRALV-iCBof_fZKGQ2-50" value="" style="shape=tableRow;horizontal=0;startSize=0;swimlaneHead=0;swimlaneBody=0;fillColor=none;collapsible=0;dropTarget=0;points=[[0,0.5],[1,0.5]];portConstraint=eastwest;top=0;left=0;right=0;bottom=0;" vertex="1" parent="9QqRALV-iCBof_fZKGQ2-37">
          <mxGeometry y="150" width="249.0850000000002" height="34" as="geometry" />
        </mxCell>
        <mxCell id="9QqRALV-iCBof_fZKGQ2-51" value="" style="shape=partialRectangle;connectable=0;fillColor=none;top=0;left=0;bottom=0;right=0;editable=1;overflow=hidden;" vertex="1" parent="9QqRALV-iCBof_fZKGQ2-50">
          <mxGeometry width="30" height="34" as="geometry">
            <mxRectangle width="30" height="34" as="alternateBounds" />
          </mxGeometry>
        </mxCell>
        <mxCell id="9QqRALV-iCBof_fZKGQ2-52" value="puppy_gender: int (1) not null" style="shape=partialRectangle;connectable=0;fillColor=none;top=0;left=0;bottom=0;right=0;align=left;spacingLeft=6;overflow=hidden;" vertex="1" parent="9QqRALV-iCBof_fZKGQ2-50">
          <mxGeometry x="30" width="219.0850000000002" height="34" as="geometry">
            <mxRectangle width="219.0850000000002" height="34" as="alternateBounds" />
          </mxGeometry>
        </mxCell>
        <mxCell id="9QqRALV-iCBof_fZKGQ2-53" value="" style="shape=tableRow;horizontal=0;startSize=0;swimlaneHead=0;swimlaneBody=0;fillColor=none;collapsible=0;dropTarget=0;points=[[0,0.5],[1,0.5]];portConstraint=eastwest;top=0;left=0;right=0;bottom=0;" vertex="1" parent="9QqRALV-iCBof_fZKGQ2-37">
          <mxGeometry y="184" width="249.0850000000002" height="30" as="geometry" />
        </mxCell>
        <mxCell id="9QqRALV-iCBof_fZKGQ2-54" value="" style="shape=partialRectangle;connectable=0;fillColor=none;top=0;left=0;bottom=0;right=0;editable=1;overflow=hidden;" vertex="1" parent="9QqRALV-iCBof_fZKGQ2-53">
          <mxGeometry width="30" height="30" as="geometry">
            <mxRectangle width="30" height="30" as="alternateBounds" />
          </mxGeometry>
        </mxCell>
        <mxCell id="9QqRALV-iCBof_fZKGQ2-55" value="puppy_description: string (64) not null" style="shape=partialRectangle;connectable=0;fillColor=none;top=0;left=0;bottom=0;right=0;align=left;spacingLeft=6;overflow=hidden;" vertex="1" parent="9QqRALV-iCBof_fZKGQ2-53">
          <mxGeometry x="30" width="219.0850000000002" height="30" as="geometry">
            <mxRectangle width="219.0850000000002" height="30" as="alternateBounds" />
          </mxGeometry>
        </mxCell>
        <mxCell id="9QqRALV-iCBof_fZKGQ2-56" value="" style="shape=tableRow;horizontal=0;startSize=0;swimlaneHead=0;swimlaneBody=0;fillColor=none;collapsible=0;dropTarget=0;points=[[0,0.5],[1,0.5]];portConstraint=eastwest;top=0;left=0;right=0;bottom=0;" vertex="1" parent="9QqRALV-iCBof_fZKGQ2-37">
          <mxGeometry y="214" width="249.0850000000002" height="51" as="geometry" />
        </mxCell>
        <mxCell id="9QqRALV-iCBof_fZKGQ2-57" value="" style="shape=partialRectangle;connectable=0;fillColor=none;top=0;left=0;bottom=0;right=0;editable=1;overflow=hidden;whiteSpace=wrap;html=1;" vertex="1" parent="9QqRALV-iCBof_fZKGQ2-56">
          <mxGeometry width="30" height="51" as="geometry">
            <mxRectangle width="30" height="51" as="alternateBounds" />
          </mxGeometry>
        </mxCell>
        <mxCell id="9QqRALV-iCBof_fZKGQ2-58" value="owner_tbl_id: int" style="shape=partialRectangle;connectable=0;fillColor=none;top=0;left=0;bottom=0;right=0;align=left;spacingLeft=6;overflow=hidden;whiteSpace=wrap;html=1;" vertex="1" parent="9QqRALV-iCBof_fZKGQ2-56">
          <mxGeometry x="30" width="219.0850000000002" height="51" as="geometry">
            <mxRectangle width="219.0850000000002" height="51" as="alternateBounds" />
          </mxGeometry>
        </mxCell>
        <mxCell id="9QqRALV-iCBof_fZKGQ2-59" value="owner_tbl" style="shape=table;startSize=23;container=1;collapsible=1;childLayout=tableLayout;fixedRows=1;rowLines=0;fontStyle=1;align=center;resizeLast=1;html=1;" vertex="1" parent="1">
          <mxGeometry x="-398.54" y="420" width="270.13" height="135" as="geometry" />
        </mxCell>
        <mxCell id="9QqRALV-iCBof_fZKGQ2-60" value="" style="shape=tableRow;horizontal=0;startSize=0;swimlaneHead=0;swimlaneBody=0;fillColor=none;collapsible=0;dropTarget=0;points=[[0,0.5],[1,0.5]];portConstraint=eastwest;top=0;left=0;right=0;bottom=1;" vertex="1" parent="9QqRALV-iCBof_fZKGQ2-59">
          <mxGeometry y="23" width="270.13" height="31" as="geometry" />
        </mxCell>
        <mxCell id="9QqRALV-iCBof_fZKGQ2-61" value="" style="shape=partialRectangle;connectable=0;fillColor=none;top=0;left=0;bottom=0;right=0;fontStyle=1;overflow=hidden;whiteSpace=wrap;html=1;" vertex="1" parent="9QqRALV-iCBof_fZKGQ2-60">
          <mxGeometry width="30" height="31" as="geometry">
            <mxRectangle width="30" height="31" as="alternateBounds" />
          </mxGeometry>
        </mxCell>
        <mxCell id="9QqRALV-iCBof_fZKGQ2-62" value="owner_id: int not null" style="shape=partialRectangle;connectable=0;fillColor=none;top=0;left=0;bottom=0;right=0;align=left;spacingLeft=6;fontStyle=5;overflow=hidden;whiteSpace=wrap;html=1;" vertex="1" parent="9QqRALV-iCBof_fZKGQ2-60">
          <mxGeometry x="30" width="240.13" height="31" as="geometry">
            <mxRectangle width="240.13" height="31" as="alternateBounds" />
          </mxGeometry>
        </mxCell>
        <mxCell id="9QqRALV-iCBof_fZKGQ2-63" value="" style="shape=tableRow;horizontal=0;startSize=0;swimlaneHead=0;swimlaneBody=0;fillColor=none;collapsible=0;dropTarget=0;points=[[0,0.5],[1,0.5]];portConstraint=eastwest;top=0;left=0;right=0;bottom=0;" vertex="1" parent="9QqRALV-iCBof_fZKGQ2-59">
          <mxGeometry y="54" width="270.13" height="26" as="geometry" />
        </mxCell>
        <mxCell id="9QqRALV-iCBof_fZKGQ2-64" value="" style="shape=partialRectangle;connectable=0;fillColor=none;top=0;left=0;bottom=0;right=0;editable=1;overflow=hidden;whiteSpace=wrap;html=1;" vertex="1" parent="9QqRALV-iCBof_fZKGQ2-63">
          <mxGeometry width="30" height="26" as="geometry">
            <mxRectangle width="30" height="26" as="alternateBounds" />
          </mxGeometry>
        </mxCell>
        <mxCell id="9QqRALV-iCBof_fZKGQ2-65" value="owner_name: string (32) not null" style="shape=partialRectangle;connectable=0;fillColor=none;top=0;left=0;bottom=0;right=0;align=left;spacingLeft=6;overflow=hidden;whiteSpace=wrap;html=1;" vertex="1" parent="9QqRALV-iCBof_fZKGQ2-63">
          <mxGeometry x="30" width="240.13" height="26" as="geometry">
            <mxRectangle width="240.13" height="26" as="alternateBounds" />
          </mxGeometry>
        </mxCell>
        <mxCell id="9QqRALV-iCBof_fZKGQ2-66" value="" style="shape=tableRow;horizontal=0;startSize=0;swimlaneHead=0;swimlaneBody=0;fillColor=none;collapsible=0;dropTarget=0;points=[[0,0.5],[1,0.5]];portConstraint=eastwest;top=0;left=0;right=0;bottom=0;" vertex="1" parent="9QqRALV-iCBof_fZKGQ2-59">
          <mxGeometry y="80" width="270.13" height="30" as="geometry" />
        </mxCell>
        <mxCell id="9QqRALV-iCBof_fZKGQ2-67" value="" style="shape=partialRectangle;connectable=0;fillColor=none;top=0;left=0;bottom=0;right=0;editable=1;overflow=hidden;whiteSpace=wrap;html=1;" vertex="1" parent="9QqRALV-iCBof_fZKGQ2-66">
          <mxGeometry width="30" height="30" as="geometry">
            <mxRectangle width="30" height="30" as="alternateBounds" />
          </mxGeometry>
        </mxCell>
        <mxCell id="9QqRALV-iCBof_fZKGQ2-68" value="owner_contact: int (11) not null Unique" style="shape=partialRectangle;connectable=0;fillColor=none;top=0;left=0;bottom=0;right=0;align=left;spacingLeft=6;overflow=hidden;whiteSpace=wrap;html=1;" vertex="1" parent="9QqRALV-iCBof_fZKGQ2-66">
          <mxGeometry x="30" width="240.13" height="30" as="geometry">
            <mxRectangle width="240.13" height="30" as="alternateBounds" />
          </mxGeometry>
        </mxCell>
        <mxCell id="9QqRALV-iCBof_fZKGQ2-69" value="" style="shape=tableRow;horizontal=0;startSize=0;swimlaneHead=0;swimlaneBody=0;fillColor=none;collapsible=0;dropTarget=0;points=[[0,0.5],[1,0.5]];portConstraint=eastwest;top=0;left=0;right=0;bottom=0;" vertex="1" parent="9QqRALV-iCBof_fZKGQ2-59">
          <mxGeometry y="110" width="270.13" height="25" as="geometry" />
        </mxCell>
        <mxCell id="9QqRALV-iCBof_fZKGQ2-70" value="" style="shape=partialRectangle;connectable=0;fillColor=none;top=0;left=0;bottom=0;right=0;editable=1;overflow=hidden;whiteSpace=wrap;html=1;" vertex="1" parent="9QqRALV-iCBof_fZKGQ2-69">
          <mxGeometry width="30" height="25" as="geometry">
            <mxRectangle width="30" height="25" as="alternateBounds" />
          </mxGeometry>
        </mxCell>
        <mxCell id="9QqRALV-iCBof_fZKGQ2-71" value="owner_address: string (64) not null" style="shape=partialRectangle;connectable=0;fillColor=none;top=0;left=0;bottom=0;right=0;align=left;spacingLeft=6;overflow=hidden;whiteSpace=wrap;html=1;" vertex="1" parent="9QqRALV-iCBof_fZKGQ2-69">
          <mxGeometry x="30" width="240.13" height="25" as="geometry">
            <mxRectangle width="240.13" height="25" as="alternateBounds" />
          </mxGeometry>
        </mxCell>
        <mxCell id="9QqRALV-iCBof_fZKGQ2-73" style="edgeStyle=orthogonalEdgeStyle;rounded=0;orthogonalLoop=1;jettySize=auto;html=1;exitX=0;exitY=0.5;exitDx=0;exitDy=0;entryX=1;entryY=0.5;entryDx=0;entryDy=0;" edge="1" parent="1" source="9QqRALV-iCBof_fZKGQ2-60" target="9QqRALV-iCBof_fZKGQ2-56">
          <mxGeometry relative="1" as="geometry" />
        </mxCell>
      </root>
    </mxGraphModel>
  </diagram>
  <diagram id="6nyqSm0dr7DZPQaTLnhk" name="Page-2">
    <mxGraphModel dx="2253" dy="791" grid="0" gridSize="10" guides="1" tooltips="1" connect="1" arrows="1" fold="1" page="1" pageScale="1" pageWidth="827" pageHeight="1169" math="0" shadow="0">
      <root>
        <mxCell id="0" />
        <mxCell id="1" parent="0" />
        <mxCell id="FIItw17yLOzdHlYJPoX4-1" value="puppy_tbl" style="shape=table;startSize=30;container=1;collapsible=1;childLayout=tableLayout;fixedRows=1;rowLines=0;fontStyle=1;align=center;resizeLast=1;html=1;" parent="1" vertex="1">
          <mxGeometry x="-301" y="103" width="249.0850000000002" height="234.1666666666673" as="geometry" />
        </mxCell>
        <mxCell id="FIItw17yLOzdHlYJPoX4-2" value="" style="shape=tableRow;horizontal=0;startSize=0;swimlaneHead=0;swimlaneBody=0;fillColor=none;collapsible=0;dropTarget=0;points=[[0,0.5],[1,0.5]];portConstraint=eastwest;top=0;left=0;right=0;bottom=1;" parent="FIItw17yLOzdHlYJPoX4-1" vertex="1">
          <mxGeometry y="30" width="249.0850000000002" height="30" as="geometry" />
        </mxCell>
        <mxCell id="FIItw17yLOzdHlYJPoX4-3" value="PK" style="shape=partialRectangle;connectable=0;fillColor=none;top=0;left=0;bottom=0;right=0;fontStyle=1;overflow=hidden;whiteSpace=wrap;html=1;" parent="FIItw17yLOzdHlYJPoX4-2" vertex="1">
          <mxGeometry width="30" height="30" as="geometry">
            <mxRectangle width="30" height="30" as="alternateBounds" />
          </mxGeometry>
        </mxCell>
        <mxCell id="FIItw17yLOzdHlYJPoX4-4" value="puppy_id: int not null" style="shape=partialRectangle;connectable=0;fillColor=none;top=0;left=0;bottom=0;right=0;align=left;spacingLeft=6;fontStyle=5;overflow=hidden;whiteSpace=wrap;html=1;" parent="FIItw17yLOzdHlYJPoX4-2" vertex="1">
          <mxGeometry x="30" width="219.0850000000002" height="30" as="geometry">
            <mxRectangle width="219.0850000000002" height="30" as="alternateBounds" />
          </mxGeometry>
        </mxCell>
        <mxCell id="FIItw17yLOzdHlYJPoX4-5" value="" style="shape=tableRow;horizontal=0;startSize=0;swimlaneHead=0;swimlaneBody=0;fillColor=none;collapsible=0;dropTarget=0;points=[[0,0.5],[1,0.5]];portConstraint=eastwest;top=0;left=0;right=0;bottom=0;" parent="FIItw17yLOzdHlYJPoX4-1" vertex="1">
          <mxGeometry y="60" width="249.0850000000002" height="30" as="geometry" />
        </mxCell>
        <mxCell id="FIItw17yLOzdHlYJPoX4-6" value="" style="shape=partialRectangle;connectable=0;fillColor=none;top=0;left=0;bottom=0;right=0;editable=1;overflow=hidden;whiteSpace=wrap;html=1;" parent="FIItw17yLOzdHlYJPoX4-5" vertex="1">
          <mxGeometry width="30" height="30" as="geometry">
            <mxRectangle width="30" height="30" as="alternateBounds" />
          </mxGeometry>
        </mxCell>
        <mxCell id="FIItw17yLOzdHlYJPoX4-7" value="puppy_name: string (32) not null" style="shape=partialRectangle;connectable=0;fillColor=none;top=0;left=0;bottom=0;right=0;align=left;spacingLeft=6;overflow=hidden;whiteSpace=wrap;html=1;" parent="FIItw17yLOzdHlYJPoX4-5" vertex="1">
          <mxGeometry x="30" width="219.0850000000002" height="30" as="geometry">
            <mxRectangle width="219.0850000000002" height="30" as="alternateBounds" />
          </mxGeometry>
        </mxCell>
        <mxCell id="FIItw17yLOzdHlYJPoX4-8" value="" style="shape=tableRow;horizontal=0;startSize=0;swimlaneHead=0;swimlaneBody=0;fillColor=none;collapsible=0;dropTarget=0;points=[[0,0.5],[1,0.5]];portConstraint=eastwest;top=0;left=0;right=0;bottom=0;" parent="FIItw17yLOzdHlYJPoX4-1" vertex="1">
          <mxGeometry y="90" width="249.0850000000002" height="30" as="geometry" />
        </mxCell>
        <mxCell id="FIItw17yLOzdHlYJPoX4-9" value="" style="shape=partialRectangle;connectable=0;fillColor=none;top=0;left=0;bottom=0;right=0;editable=1;overflow=hidden;whiteSpace=wrap;html=1;" parent="FIItw17yLOzdHlYJPoX4-8" vertex="1">
          <mxGeometry width="30" height="30" as="geometry">
            <mxRectangle width="30" height="30" as="alternateBounds" />
          </mxGeometry>
        </mxCell>
        <mxCell id="FIItw17yLOzdHlYJPoX4-10" value="puppy_breed: string (32) not null&amp;nbsp;" style="shape=partialRectangle;connectable=0;fillColor=none;top=0;left=0;bottom=0;right=0;align=left;spacingLeft=6;overflow=hidden;whiteSpace=wrap;html=1;" parent="FIItw17yLOzdHlYJPoX4-8" vertex="1">
          <mxGeometry x="30" width="219.0850000000002" height="30" as="geometry">
            <mxRectangle width="219.0850000000002" height="30" as="alternateBounds" />
          </mxGeometry>
        </mxCell>
        <mxCell id="FIItw17yLOzdHlYJPoX4-11" value="" style="shape=tableRow;horizontal=0;startSize=0;swimlaneHead=0;swimlaneBody=0;fillColor=none;collapsible=0;dropTarget=0;points=[[0,0.5],[1,0.5]];portConstraint=eastwest;top=0;left=0;right=0;bottom=0;" parent="FIItw17yLOzdHlYJPoX4-1" vertex="1">
          <mxGeometry y="120" width="249.0850000000002" height="30" as="geometry" />
        </mxCell>
        <mxCell id="FIItw17yLOzdHlYJPoX4-12" value="" style="shape=partialRectangle;connectable=0;fillColor=none;top=0;left=0;bottom=0;right=0;editable=1;overflow=hidden;" parent="FIItw17yLOzdHlYJPoX4-11" vertex="1">
          <mxGeometry width="30" height="30" as="geometry">
            <mxRectangle width="30" height="30" as="alternateBounds" />
          </mxGeometry>
        </mxCell>
        <mxCell id="FIItw17yLOzdHlYJPoX4-13" value="puppy_birthdate: date not null" style="shape=partialRectangle;connectable=0;fillColor=none;top=0;left=0;bottom=0;right=0;align=left;spacingLeft=6;overflow=hidden;" parent="FIItw17yLOzdHlYJPoX4-11" vertex="1">
          <mxGeometry x="30" width="219.0850000000002" height="30" as="geometry">
            <mxRectangle width="219.0850000000002" height="30" as="alternateBounds" />
          </mxGeometry>
        </mxCell>
        <mxCell id="FIItw17yLOzdHlYJPoX4-14" value="" style="shape=tableRow;horizontal=0;startSize=0;swimlaneHead=0;swimlaneBody=0;fillColor=none;collapsible=0;dropTarget=0;points=[[0,0.5],[1,0.5]];portConstraint=eastwest;top=0;left=0;right=0;bottom=0;" parent="FIItw17yLOzdHlYJPoX4-1" vertex="1">
          <mxGeometry y="150" width="249.0850000000002" height="34" as="geometry" />
        </mxCell>
        <mxCell id="FIItw17yLOzdHlYJPoX4-15" value="" style="shape=partialRectangle;connectable=0;fillColor=none;top=0;left=0;bottom=0;right=0;editable=1;overflow=hidden;" parent="FIItw17yLOzdHlYJPoX4-14" vertex="1">
          <mxGeometry width="30" height="34" as="geometry">
            <mxRectangle width="30" height="34" as="alternateBounds" />
          </mxGeometry>
        </mxCell>
        <mxCell id="FIItw17yLOzdHlYJPoX4-16" value="puppy_gender: int (1) not null" style="shape=partialRectangle;connectable=0;fillColor=none;top=0;left=0;bottom=0;right=0;align=left;spacingLeft=6;overflow=hidden;" parent="FIItw17yLOzdHlYJPoX4-14" vertex="1">
          <mxGeometry x="30" width="219.0850000000002" height="34" as="geometry">
            <mxRectangle width="219.0850000000002" height="34" as="alternateBounds" />
          </mxGeometry>
        </mxCell>
        <mxCell id="sh-VWUtLt08OAQ_Weohr-56" value="" style="shape=tableRow;horizontal=0;startSize=0;swimlaneHead=0;swimlaneBody=0;fillColor=none;collapsible=0;dropTarget=0;points=[[0,0.5],[1,0.5]];portConstraint=eastwest;top=0;left=0;right=0;bottom=0;" parent="FIItw17yLOzdHlYJPoX4-1" vertex="1">
          <mxGeometry y="184" width="249.0850000000002" height="30" as="geometry" />
        </mxCell>
        <mxCell id="sh-VWUtLt08OAQ_Weohr-57" value="" style="shape=partialRectangle;connectable=0;fillColor=none;top=0;left=0;bottom=0;right=0;editable=1;overflow=hidden;" parent="sh-VWUtLt08OAQ_Weohr-56" vertex="1">
          <mxGeometry width="30" height="30" as="geometry">
            <mxRectangle width="30" height="30" as="alternateBounds" />
          </mxGeometry>
        </mxCell>
        <mxCell id="sh-VWUtLt08OAQ_Weohr-58" value="puppy_description: string (64) not null" style="shape=partialRectangle;connectable=0;fillColor=none;top=0;left=0;bottom=0;right=0;align=left;spacingLeft=6;overflow=hidden;" parent="sh-VWUtLt08OAQ_Weohr-56" vertex="1">
          <mxGeometry x="30" width="219.0850000000002" height="30" as="geometry">
            <mxRectangle width="219.0850000000002" height="30" as="alternateBounds" />
          </mxGeometry>
        </mxCell>
        <mxCell id="FIItw17yLOzdHlYJPoX4-17" value="" style="shape=tableRow;horizontal=0;startSize=0;swimlaneHead=0;swimlaneBody=0;fillColor=none;collapsible=0;dropTarget=0;points=[[0,0.5],[1,0.5]];portConstraint=eastwest;top=0;left=0;right=0;bottom=0;" parent="FIItw17yLOzdHlYJPoX4-1" vertex="1">
          <mxGeometry y="214" width="249.0850000000002" height="20" as="geometry" />
        </mxCell>
        <mxCell id="FIItw17yLOzdHlYJPoX4-18" value="" style="shape=partialRectangle;connectable=0;fillColor=none;top=0;left=0;bottom=0;right=0;editable=1;overflow=hidden;whiteSpace=wrap;html=1;" parent="FIItw17yLOzdHlYJPoX4-17" vertex="1">
          <mxGeometry width="30" height="20" as="geometry">
            <mxRectangle width="30" height="20" as="alternateBounds" />
          </mxGeometry>
        </mxCell>
        <mxCell id="FIItw17yLOzdHlYJPoX4-19" value="" style="shape=partialRectangle;connectable=0;fillColor=none;top=0;left=0;bottom=0;right=0;align=left;spacingLeft=6;overflow=hidden;whiteSpace=wrap;html=1;" parent="FIItw17yLOzdHlYJPoX4-17" vertex="1">
          <mxGeometry x="30" width="219.0850000000002" height="20" as="geometry">
            <mxRectangle width="219.0850000000002" height="20" as="alternateBounds" />
          </mxGeometry>
        </mxCell>
        <mxCell id="FIItw17yLOzdHlYJPoX4-20" value="owner_tbl" style="shape=table;startSize=23;container=1;collapsible=1;childLayout=tableLayout;fixedRows=1;rowLines=0;fontStyle=1;align=center;resizeLast=1;html=1;" parent="1" vertex="1">
          <mxGeometry x="-734.0699999999999" y="107" width="270.13" height="135" as="geometry" />
        </mxCell>
        <mxCell id="FIItw17yLOzdHlYJPoX4-21" value="" style="shape=tableRow;horizontal=0;startSize=0;swimlaneHead=0;swimlaneBody=0;fillColor=none;collapsible=0;dropTarget=0;points=[[0,0.5],[1,0.5]];portConstraint=eastwest;top=0;left=0;right=0;bottom=1;" parent="FIItw17yLOzdHlYJPoX4-20" vertex="1">
          <mxGeometry y="23" width="270.13" height="31" as="geometry" />
        </mxCell>
        <mxCell id="FIItw17yLOzdHlYJPoX4-22" value="PK" style="shape=partialRectangle;connectable=0;fillColor=none;top=0;left=0;bottom=0;right=0;fontStyle=1;overflow=hidden;whiteSpace=wrap;html=1;" parent="FIItw17yLOzdHlYJPoX4-21" vertex="1">
          <mxGeometry width="30" height="31" as="geometry">
            <mxRectangle width="30" height="31" as="alternateBounds" />
          </mxGeometry>
        </mxCell>
        <mxCell id="FIItw17yLOzdHlYJPoX4-23" value="owner_id: int not null" style="shape=partialRectangle;connectable=0;fillColor=none;top=0;left=0;bottom=0;right=0;align=left;spacingLeft=6;fontStyle=5;overflow=hidden;whiteSpace=wrap;html=1;" parent="FIItw17yLOzdHlYJPoX4-21" vertex="1">
          <mxGeometry x="30" width="240.13" height="31" as="geometry">
            <mxRectangle width="240.13" height="31" as="alternateBounds" />
          </mxGeometry>
        </mxCell>
        <mxCell id="FIItw17yLOzdHlYJPoX4-24" value="" style="shape=tableRow;horizontal=0;startSize=0;swimlaneHead=0;swimlaneBody=0;fillColor=none;collapsible=0;dropTarget=0;points=[[0,0.5],[1,0.5]];portConstraint=eastwest;top=0;left=0;right=0;bottom=0;" parent="FIItw17yLOzdHlYJPoX4-20" vertex="1">
          <mxGeometry y="54" width="270.13" height="26" as="geometry" />
        </mxCell>
        <mxCell id="FIItw17yLOzdHlYJPoX4-25" value="" style="shape=partialRectangle;connectable=0;fillColor=none;top=0;left=0;bottom=0;right=0;editable=1;overflow=hidden;whiteSpace=wrap;html=1;" parent="FIItw17yLOzdHlYJPoX4-24" vertex="1">
          <mxGeometry width="30" height="26" as="geometry">
            <mxRectangle width="30" height="26" as="alternateBounds" />
          </mxGeometry>
        </mxCell>
        <mxCell id="FIItw17yLOzdHlYJPoX4-26" value="owner_name: string (32) not null" style="shape=partialRectangle;connectable=0;fillColor=none;top=0;left=0;bottom=0;right=0;align=left;spacingLeft=6;overflow=hidden;whiteSpace=wrap;html=1;" parent="FIItw17yLOzdHlYJPoX4-24" vertex="1">
          <mxGeometry x="30" width="240.13" height="26" as="geometry">
            <mxRectangle width="240.13" height="26" as="alternateBounds" />
          </mxGeometry>
        </mxCell>
        <mxCell id="FIItw17yLOzdHlYJPoX4-27" value="" style="shape=tableRow;horizontal=0;startSize=0;swimlaneHead=0;swimlaneBody=0;fillColor=none;collapsible=0;dropTarget=0;points=[[0,0.5],[1,0.5]];portConstraint=eastwest;top=0;left=0;right=0;bottom=0;" parent="FIItw17yLOzdHlYJPoX4-20" vertex="1">
          <mxGeometry y="80" width="270.13" height="30" as="geometry" />
        </mxCell>
        <mxCell id="FIItw17yLOzdHlYJPoX4-28" value="" style="shape=partialRectangle;connectable=0;fillColor=none;top=0;left=0;bottom=0;right=0;editable=1;overflow=hidden;whiteSpace=wrap;html=1;" parent="FIItw17yLOzdHlYJPoX4-27" vertex="1">
          <mxGeometry width="30" height="30" as="geometry">
            <mxRectangle width="30" height="30" as="alternateBounds" />
          </mxGeometry>
        </mxCell>
        <mxCell id="FIItw17yLOzdHlYJPoX4-29" value="owner_contact: int (11) not null Unique" style="shape=partialRectangle;connectable=0;fillColor=none;top=0;left=0;bottom=0;right=0;align=left;spacingLeft=6;overflow=hidden;whiteSpace=wrap;html=1;" parent="FIItw17yLOzdHlYJPoX4-27" vertex="1">
          <mxGeometry x="30" width="240.13" height="30" as="geometry">
            <mxRectangle width="240.13" height="30" as="alternateBounds" />
          </mxGeometry>
        </mxCell>
        <mxCell id="FIItw17yLOzdHlYJPoX4-30" value="" style="shape=tableRow;horizontal=0;startSize=0;swimlaneHead=0;swimlaneBody=0;fillColor=none;collapsible=0;dropTarget=0;points=[[0,0.5],[1,0.5]];portConstraint=eastwest;top=0;left=0;right=0;bottom=0;" parent="FIItw17yLOzdHlYJPoX4-20" vertex="1">
          <mxGeometry y="110" width="270.13" height="25" as="geometry" />
        </mxCell>
        <mxCell id="FIItw17yLOzdHlYJPoX4-31" value="" style="shape=partialRectangle;connectable=0;fillColor=none;top=0;left=0;bottom=0;right=0;editable=1;overflow=hidden;whiteSpace=wrap;html=1;" parent="FIItw17yLOzdHlYJPoX4-30" vertex="1">
          <mxGeometry width="30" height="25" as="geometry">
            <mxRectangle width="30" height="25" as="alternateBounds" />
          </mxGeometry>
        </mxCell>
        <mxCell id="FIItw17yLOzdHlYJPoX4-32" value="owner_address: string (64) not null" style="shape=partialRectangle;connectable=0;fillColor=none;top=0;left=0;bottom=0;right=0;align=left;spacingLeft=6;overflow=hidden;whiteSpace=wrap;html=1;" parent="FIItw17yLOzdHlYJPoX4-30" vertex="1">
          <mxGeometry x="30" width="240.13" height="25" as="geometry">
            <mxRectangle width="240.13" height="25" as="alternateBounds" />
          </mxGeometry>
        </mxCell>
        <mxCell id="FIItw17yLOzdHlYJPoX4-34" value="&lt;b&gt;&lt;font style=&quot;font-size: 14px;&quot;&gt;ERD&lt;/font&gt;&lt;/b&gt;" style="text;html=1;align=center;verticalAlign=middle;resizable=0;points=[];autosize=1;strokeColor=none;fillColor=none;" parent="1" vertex="1">
          <mxGeometry x="-437" y="63" width="48" height="29" as="geometry" />
        </mxCell>
        <mxCell id="sh-VWUtLt08OAQ_Weohr-1" value="Puppy Table" style="shape=table;startSize=30;container=1;collapsible=1;childLayout=tableLayout;fixedRows=1;rowLines=0;fontStyle=1;align=center;resizeLast=1;html=1;" parent="1" vertex="1">
          <mxGeometry x="-694" y="781" width="190" height="240" as="geometry" />
        </mxCell>
        <mxCell id="sh-VWUtLt08OAQ_Weohr-2" value="" style="shape=tableRow;horizontal=0;startSize=0;swimlaneHead=0;swimlaneBody=0;fillColor=none;collapsible=0;dropTarget=0;points=[[0,0.5],[1,0.5]];portConstraint=eastwest;top=0;left=0;right=0;bottom=1;" parent="sh-VWUtLt08OAQ_Weohr-1" vertex="1">
          <mxGeometry y="30" width="190" height="30" as="geometry" />
        </mxCell>
        <mxCell id="sh-VWUtLt08OAQ_Weohr-3" value="" style="shape=partialRectangle;connectable=0;fillColor=none;top=0;left=0;bottom=0;right=0;fontStyle=1;overflow=hidden;whiteSpace=wrap;html=1;" parent="sh-VWUtLt08OAQ_Weohr-2" vertex="1">
          <mxGeometry width="30" height="30" as="geometry">
            <mxRectangle width="30" height="30" as="alternateBounds" />
          </mxGeometry>
        </mxCell>
        <mxCell id="sh-VWUtLt08OAQ_Weohr-4" value="puppy_id" style="shape=partialRectangle;connectable=0;fillColor=none;top=0;left=0;bottom=0;right=0;align=left;spacingLeft=6;fontStyle=5;overflow=hidden;whiteSpace=wrap;html=1;" parent="sh-VWUtLt08OAQ_Weohr-2" vertex="1">
          <mxGeometry x="30" width="160" height="30" as="geometry">
            <mxRectangle width="160" height="30" as="alternateBounds" />
          </mxGeometry>
        </mxCell>
        <mxCell id="sh-VWUtLt08OAQ_Weohr-5" value="" style="shape=tableRow;horizontal=0;startSize=0;swimlaneHead=0;swimlaneBody=0;fillColor=none;collapsible=0;dropTarget=0;points=[[0,0.5],[1,0.5]];portConstraint=eastwest;top=0;left=0;right=0;bottom=0;" parent="sh-VWUtLt08OAQ_Weohr-1" vertex="1">
          <mxGeometry y="60" width="190" height="30" as="geometry" />
        </mxCell>
        <mxCell id="sh-VWUtLt08OAQ_Weohr-6" value="" style="shape=partialRectangle;connectable=0;fillColor=none;top=0;left=0;bottom=0;right=0;editable=1;overflow=hidden;whiteSpace=wrap;html=1;" parent="sh-VWUtLt08OAQ_Weohr-5" vertex="1">
          <mxGeometry width="30" height="30" as="geometry">
            <mxRectangle width="30" height="30" as="alternateBounds" />
          </mxGeometry>
        </mxCell>
        <mxCell id="sh-VWUtLt08OAQ_Weohr-7" value="name: string (20) not null" style="shape=partialRectangle;connectable=0;fillColor=none;top=0;left=0;bottom=0;right=0;align=left;spacingLeft=6;overflow=hidden;whiteSpace=wrap;html=1;" parent="sh-VWUtLt08OAQ_Weohr-5" vertex="1">
          <mxGeometry x="30" width="160" height="30" as="geometry">
            <mxRectangle width="160" height="30" as="alternateBounds" />
          </mxGeometry>
        </mxCell>
        <mxCell id="sh-VWUtLt08OAQ_Weohr-8" value="" style="shape=tableRow;horizontal=0;startSize=0;swimlaneHead=0;swimlaneBody=0;fillColor=none;collapsible=0;dropTarget=0;points=[[0,0.5],[1,0.5]];portConstraint=eastwest;top=0;left=0;right=0;bottom=0;" parent="sh-VWUtLt08OAQ_Weohr-1" vertex="1">
          <mxGeometry y="90" width="190" height="30" as="geometry" />
        </mxCell>
        <mxCell id="sh-VWUtLt08OAQ_Weohr-9" value="" style="shape=partialRectangle;connectable=0;fillColor=none;top=0;left=0;bottom=0;right=0;editable=1;overflow=hidden;whiteSpace=wrap;html=1;" parent="sh-VWUtLt08OAQ_Weohr-8" vertex="1">
          <mxGeometry width="30" height="30" as="geometry">
            <mxRectangle width="30" height="30" as="alternateBounds" />
          </mxGeometry>
        </mxCell>
        <mxCell id="sh-VWUtLt08OAQ_Weohr-10" value="breed: string (20) not null&amp;nbsp;" style="shape=partialRectangle;connectable=0;fillColor=none;top=0;left=0;bottom=0;right=0;align=left;spacingLeft=6;overflow=hidden;whiteSpace=wrap;html=1;" parent="sh-VWUtLt08OAQ_Weohr-8" vertex="1">
          <mxGeometry x="30" width="160" height="30" as="geometry">
            <mxRectangle width="160" height="30" as="alternateBounds" />
          </mxGeometry>
        </mxCell>
        <mxCell id="sh-VWUtLt08OAQ_Weohr-11" value="" style="shape=tableRow;horizontal=0;startSize=0;swimlaneHead=0;swimlaneBody=0;fillColor=none;collapsible=0;dropTarget=0;points=[[0,0.5],[1,0.5]];portConstraint=eastwest;top=0;left=0;right=0;bottom=0;" parent="sh-VWUtLt08OAQ_Weohr-1" vertex="1">
          <mxGeometry y="120" width="190" height="30" as="geometry" />
        </mxCell>
        <mxCell id="sh-VWUtLt08OAQ_Weohr-12" value="" style="shape=partialRectangle;connectable=0;fillColor=none;top=0;left=0;bottom=0;right=0;editable=1;overflow=hidden;" parent="sh-VWUtLt08OAQ_Weohr-11" vertex="1">
          <mxGeometry width="30" height="30" as="geometry">
            <mxRectangle width="30" height="30" as="alternateBounds" />
          </mxGeometry>
        </mxCell>
        <mxCell id="sh-VWUtLt08OAQ_Weohr-13" value="age: int not null" style="shape=partialRectangle;connectable=0;fillColor=none;top=0;left=0;bottom=0;right=0;align=left;spacingLeft=6;overflow=hidden;" parent="sh-VWUtLt08OAQ_Weohr-11" vertex="1">
          <mxGeometry x="30" width="160" height="30" as="geometry">
            <mxRectangle width="160" height="30" as="alternateBounds" />
          </mxGeometry>
        </mxCell>
        <mxCell id="sh-VWUtLt08OAQ_Weohr-14" value="" style="shape=tableRow;horizontal=0;startSize=0;swimlaneHead=0;swimlaneBody=0;fillColor=none;collapsible=0;dropTarget=0;points=[[0,0.5],[1,0.5]];portConstraint=eastwest;top=0;left=0;right=0;bottom=0;" parent="sh-VWUtLt08OAQ_Weohr-1" vertex="1">
          <mxGeometry y="150" width="190" height="30" as="geometry" />
        </mxCell>
        <mxCell id="sh-VWUtLt08OAQ_Weohr-15" value="" style="shape=partialRectangle;connectable=0;fillColor=none;top=0;left=0;bottom=0;right=0;editable=1;overflow=hidden;" parent="sh-VWUtLt08OAQ_Weohr-14" vertex="1">
          <mxGeometry width="30" height="30" as="geometry">
            <mxRectangle width="30" height="30" as="alternateBounds" />
          </mxGeometry>
        </mxCell>
        <mxCell id="sh-VWUtLt08OAQ_Weohr-16" value="gender: string not null" style="shape=partialRectangle;connectable=0;fillColor=none;top=0;left=0;bottom=0;right=0;align=left;spacingLeft=6;overflow=hidden;" parent="sh-VWUtLt08OAQ_Weohr-14" vertex="1">
          <mxGeometry x="30" width="160" height="30" as="geometry">
            <mxRectangle width="160" height="30" as="alternateBounds" />
          </mxGeometry>
        </mxCell>
        <mxCell id="sh-VWUtLt08OAQ_Weohr-17" value="" style="shape=tableRow;horizontal=0;startSize=0;swimlaneHead=0;swimlaneBody=0;fillColor=none;collapsible=0;dropTarget=0;points=[[0,0.5],[1,0.5]];portConstraint=eastwest;top=0;left=0;right=0;bottom=0;" parent="sh-VWUtLt08OAQ_Weohr-1" vertex="1">
          <mxGeometry y="180" width="190" height="60" as="geometry" />
        </mxCell>
        <mxCell id="sh-VWUtLt08OAQ_Weohr-18" value="FK" style="shape=partialRectangle;connectable=0;fillColor=none;top=0;left=0;bottom=0;right=0;editable=1;overflow=hidden;whiteSpace=wrap;html=1;" parent="sh-VWUtLt08OAQ_Weohr-17" vertex="1">
          <mxGeometry width="30" height="60" as="geometry">
            <mxRectangle width="30" height="60" as="alternateBounds" />
          </mxGeometry>
        </mxCell>
        <mxCell id="sh-VWUtLt08OAQ_Weohr-19" value="owner_id:&amp;nbsp;(Foreign Key, - links to Owners table&amp;nbsp;" style="shape=partialRectangle;connectable=0;fillColor=none;top=0;left=0;bottom=0;right=0;align=left;spacingLeft=6;overflow=hidden;whiteSpace=wrap;html=1;" parent="sh-VWUtLt08OAQ_Weohr-17" vertex="1">
          <mxGeometry x="30" width="160" height="60" as="geometry">
            <mxRectangle width="160" height="60" as="alternateBounds" />
          </mxGeometry>
        </mxCell>
        <mxCell id="sh-VWUtLt08OAQ_Weohr-20" value="Owner Table" style="shape=table;startSize=30;container=1;collapsible=1;childLayout=tableLayout;fixedRows=1;rowLines=0;fontStyle=1;align=center;resizeLast=1;html=1;" parent="1" vertex="1">
          <mxGeometry x="-364" y="761" width="220" height="140" as="geometry" />
        </mxCell>
        <mxCell id="sh-VWUtLt08OAQ_Weohr-21" value="" style="shape=tableRow;horizontal=0;startSize=0;swimlaneHead=0;swimlaneBody=0;fillColor=none;collapsible=0;dropTarget=0;points=[[0,0.5],[1,0.5]];portConstraint=eastwest;top=0;left=0;right=0;bottom=1;" parent="sh-VWUtLt08OAQ_Weohr-20" vertex="1">
          <mxGeometry y="30" width="220" height="30" as="geometry" />
        </mxCell>
        <mxCell id="sh-VWUtLt08OAQ_Weohr-22" value="" style="shape=partialRectangle;connectable=0;fillColor=none;top=0;left=0;bottom=0;right=0;fontStyle=1;overflow=hidden;whiteSpace=wrap;html=1;" parent="sh-VWUtLt08OAQ_Weohr-21" vertex="1">
          <mxGeometry width="30" height="30" as="geometry">
            <mxRectangle width="30" height="30" as="alternateBounds" />
          </mxGeometry>
        </mxCell>
        <mxCell id="sh-VWUtLt08OAQ_Weohr-23" value="owner_id" style="shape=partialRectangle;connectable=0;fillColor=none;top=0;left=0;bottom=0;right=0;align=left;spacingLeft=6;fontStyle=5;overflow=hidden;whiteSpace=wrap;html=1;" parent="sh-VWUtLt08OAQ_Weohr-21" vertex="1">
          <mxGeometry x="30" width="190" height="30" as="geometry">
            <mxRectangle width="190" height="30" as="alternateBounds" />
          </mxGeometry>
        </mxCell>
        <mxCell id="sh-VWUtLt08OAQ_Weohr-24" value="" style="shape=tableRow;horizontal=0;startSize=0;swimlaneHead=0;swimlaneBody=0;fillColor=none;collapsible=0;dropTarget=0;points=[[0,0.5],[1,0.5]];portConstraint=eastwest;top=0;left=0;right=0;bottom=0;" parent="sh-VWUtLt08OAQ_Weohr-20" vertex="1">
          <mxGeometry y="60" width="220" height="30" as="geometry" />
        </mxCell>
        <mxCell id="sh-VWUtLt08OAQ_Weohr-25" value="" style="shape=partialRectangle;connectable=0;fillColor=none;top=0;left=0;bottom=0;right=0;editable=1;overflow=hidden;whiteSpace=wrap;html=1;" parent="sh-VWUtLt08OAQ_Weohr-24" vertex="1">
          <mxGeometry width="30" height="30" as="geometry">
            <mxRectangle width="30" height="30" as="alternateBounds" />
          </mxGeometry>
        </mxCell>
        <mxCell id="sh-VWUtLt08OAQ_Weohr-26" value="name: string (20) not null" style="shape=partialRectangle;connectable=0;fillColor=none;top=0;left=0;bottom=0;right=0;align=left;spacingLeft=6;overflow=hidden;whiteSpace=wrap;html=1;" parent="sh-VWUtLt08OAQ_Weohr-24" vertex="1">
          <mxGeometry x="30" width="190" height="30" as="geometry">
            <mxRectangle width="190" height="30" as="alternateBounds" />
          </mxGeometry>
        </mxCell>
        <mxCell id="sh-VWUtLt08OAQ_Weohr-27" value="" style="shape=tableRow;horizontal=0;startSize=0;swimlaneHead=0;swimlaneBody=0;fillColor=none;collapsible=0;dropTarget=0;points=[[0,0.5],[1,0.5]];portConstraint=eastwest;top=0;left=0;right=0;bottom=0;" parent="sh-VWUtLt08OAQ_Weohr-20" vertex="1">
          <mxGeometry y="90" width="220" height="30" as="geometry" />
        </mxCell>
        <mxCell id="sh-VWUtLt08OAQ_Weohr-28" value="" style="shape=partialRectangle;connectable=0;fillColor=none;top=0;left=0;bottom=0;right=0;editable=1;overflow=hidden;whiteSpace=wrap;html=1;" parent="sh-VWUtLt08OAQ_Weohr-27" vertex="1">
          <mxGeometry width="30" height="30" as="geometry">
            <mxRectangle width="30" height="30" as="alternateBounds" />
          </mxGeometry>
        </mxCell>
        <mxCell id="sh-VWUtLt08OAQ_Weohr-29" value="contact_info: string (20) not null" style="shape=partialRectangle;connectable=0;fillColor=none;top=0;left=0;bottom=0;right=0;align=left;spacingLeft=6;overflow=hidden;whiteSpace=wrap;html=1;" parent="sh-VWUtLt08OAQ_Weohr-27" vertex="1">
          <mxGeometry x="30" width="190" height="30" as="geometry">
            <mxRectangle width="190" height="30" as="alternateBounds" />
          </mxGeometry>
        </mxCell>
        <mxCell id="sh-VWUtLt08OAQ_Weohr-30" value="" style="shape=tableRow;horizontal=0;startSize=0;swimlaneHead=0;swimlaneBody=0;fillColor=none;collapsible=0;dropTarget=0;points=[[0,0.5],[1,0.5]];portConstraint=eastwest;top=0;left=0;right=0;bottom=0;" parent="sh-VWUtLt08OAQ_Weohr-20" vertex="1">
          <mxGeometry y="120" width="220" height="20" as="geometry" />
        </mxCell>
        <mxCell id="sh-VWUtLt08OAQ_Weohr-31" value="" style="shape=partialRectangle;connectable=0;fillColor=none;top=0;left=0;bottom=0;right=0;editable=1;overflow=hidden;whiteSpace=wrap;html=1;" parent="sh-VWUtLt08OAQ_Weohr-30" vertex="1">
          <mxGeometry width="30" height="20" as="geometry">
            <mxRectangle width="30" height="20" as="alternateBounds" />
          </mxGeometry>
        </mxCell>
        <mxCell id="sh-VWUtLt08OAQ_Weohr-32" value="" style="shape=partialRectangle;connectable=0;fillColor=none;top=0;left=0;bottom=0;right=0;align=left;spacingLeft=6;overflow=hidden;whiteSpace=wrap;html=1;" parent="sh-VWUtLt08OAQ_Weohr-30" vertex="1">
          <mxGeometry x="30" width="190" height="20" as="geometry">
            <mxRectangle width="190" height="20" as="alternateBounds" />
          </mxGeometry>
        </mxCell>
        <mxCell id="sh-VWUtLt08OAQ_Weohr-33" style="edgeStyle=orthogonalEdgeStyle;rounded=0;orthogonalLoop=1;jettySize=auto;html=1;exitX=0;exitY=0.5;exitDx=0;exitDy=0;entryX=1;entryY=0.5;entryDx=0;entryDy=0;" parent="1" source="sh-VWUtLt08OAQ_Weohr-21" target="sh-VWUtLt08OAQ_Weohr-17" edge="1">
          <mxGeometry relative="1" as="geometry" />
        </mxCell>
        <mxCell id="sh-VWUtLt08OAQ_Weohr-34" value="Puppy Table" style="swimlane;fontStyle=1;align=center;verticalAlign=top;childLayout=stackLayout;horizontal=1;startSize=26;horizontalStack=0;resizeParent=1;resizeParentMax=0;resizeLast=0;collapsible=1;marginBottom=0;whiteSpace=wrap;html=1;" parent="1" vertex="1">
          <mxGeometry x="-683" y="1106" width="190" height="294" as="geometry" />
        </mxCell>
        <mxCell id="sh-VWUtLt08OAQ_Weohr-35" value="+ puppy_id: number" style="text;strokeColor=none;fillColor=none;align=left;verticalAlign=top;spacingLeft=4;spacingRight=4;overflow=hidden;rotatable=0;points=[[0,0.5],[1,0.5]];portConstraint=eastwest;whiteSpace=wrap;html=1;" parent="sh-VWUtLt08OAQ_Weohr-34" vertex="1">
          <mxGeometry y="26" width="190" height="26" as="geometry" />
        </mxCell>
        <mxCell id="sh-VWUtLt08OAQ_Weohr-36" value="+ name: string not null" style="text;strokeColor=none;fillColor=none;align=left;verticalAlign=top;spacingLeft=4;spacingRight=4;overflow=hidden;rotatable=0;points=[[0,0.5],[1,0.5]];portConstraint=eastwest;whiteSpace=wrap;html=1;" parent="sh-VWUtLt08OAQ_Weohr-34" vertex="1">
          <mxGeometry y="52" width="190" height="26" as="geometry" />
        </mxCell>
        <mxCell id="sh-VWUtLt08OAQ_Weohr-37" value="+ breed: string not null" style="text;strokeColor=none;fillColor=none;align=left;verticalAlign=top;spacingLeft=4;spacingRight=4;overflow=hidden;rotatable=0;points=[[0,0.5],[1,0.5]];portConstraint=eastwest;whiteSpace=wrap;html=1;" parent="sh-VWUtLt08OAQ_Weohr-34" vertex="1">
          <mxGeometry y="78" width="190" height="26" as="geometry" />
        </mxCell>
        <mxCell id="sh-VWUtLt08OAQ_Weohr-38" value="+ age: number not null" style="text;strokeColor=none;fillColor=none;align=left;verticalAlign=top;spacingLeft=4;spacingRight=4;overflow=hidden;rotatable=0;points=[[0,0.5],[1,0.5]];portConstraint=eastwest;whiteSpace=wrap;html=1;" parent="sh-VWUtLt08OAQ_Weohr-34" vertex="1">
          <mxGeometry y="104" width="190" height="26" as="geometry" />
        </mxCell>
        <mxCell id="sh-VWUtLt08OAQ_Weohr-39" value="+ gender: string not null" style="text;strokeColor=none;fillColor=none;align=left;verticalAlign=top;spacingLeft=4;spacingRight=4;overflow=hidden;rotatable=0;points=[[0,0.5],[1,0.5]];portConstraint=eastwest;whiteSpace=wrap;html=1;" parent="sh-VWUtLt08OAQ_Weohr-34" vertex="1">
          <mxGeometry y="130" width="190" height="26" as="geometry" />
        </mxCell>
        <mxCell id="sh-VWUtLt08OAQ_Weohr-40" value="+ owner_id: number not null" style="text;strokeColor=none;fillColor=none;align=left;verticalAlign=top;spacingLeft=4;spacingRight=4;overflow=hidden;rotatable=0;points=[[0,0.5],[1,0.5]];portConstraint=eastwest;whiteSpace=wrap;html=1;" parent="sh-VWUtLt08OAQ_Weohr-34" vertex="1">
          <mxGeometry y="156" width="190" height="26" as="geometry" />
        </mxCell>
        <mxCell id="sh-VWUtLt08OAQ_Weohr-41" value="" style="line;strokeWidth=1;fillColor=none;align=left;verticalAlign=middle;spacingTop=-1;spacingLeft=3;spacingRight=3;rotatable=0;labelPosition=right;points=[];portConstraint=eastwest;strokeColor=inherit;" parent="sh-VWUtLt08OAQ_Weohr-34" vertex="1">
          <mxGeometry y="182" width="190" height="8" as="geometry" />
        </mxCell>
        <mxCell id="sh-VWUtLt08OAQ_Weohr-42" value="+ addPuppy(type):" style="text;strokeColor=none;fillColor=none;align=left;verticalAlign=top;spacingLeft=4;spacingRight=4;overflow=hidden;rotatable=0;points=[[0,0.5],[1,0.5]];portConstraint=eastwest;whiteSpace=wrap;html=1;" parent="sh-VWUtLt08OAQ_Weohr-34" vertex="1">
          <mxGeometry y="190" width="190" height="26" as="geometry" />
        </mxCell>
        <mxCell id="sh-VWUtLt08OAQ_Weohr-43" value="+ displayPuppy(type): attribute" style="text;strokeColor=none;fillColor=none;align=left;verticalAlign=top;spacingLeft=4;spacingRight=4;overflow=hidden;rotatable=0;points=[[0,0.5],[1,0.5]];portConstraint=eastwest;whiteSpace=wrap;html=1;" parent="sh-VWUtLt08OAQ_Weohr-34" vertex="1">
          <mxGeometry y="216" width="190" height="26" as="geometry" />
        </mxCell>
        <mxCell id="sh-VWUtLt08OAQ_Weohr-44" value="+ deletePuppy(type):" style="text;strokeColor=none;fillColor=none;align=left;verticalAlign=top;spacingLeft=4;spacingRight=4;overflow=hidden;rotatable=0;points=[[0,0.5],[1,0.5]];portConstraint=eastwest;whiteSpace=wrap;html=1;" parent="sh-VWUtLt08OAQ_Weohr-34" vertex="1">
          <mxGeometry y="242" width="190" height="26" as="geometry" />
        </mxCell>
        <mxCell id="sh-VWUtLt08OAQ_Weohr-45" value="+ updatePuppy(type):" style="text;strokeColor=none;fillColor=none;align=left;verticalAlign=top;spacingLeft=4;spacingRight=4;overflow=hidden;rotatable=0;points=[[0,0.5],[1,0.5]];portConstraint=eastwest;whiteSpace=wrap;html=1;" parent="sh-VWUtLt08OAQ_Weohr-34" vertex="1">
          <mxGeometry y="268" width="190" height="26" as="geometry" />
        </mxCell>
        <mxCell id="sh-VWUtLt08OAQ_Weohr-46" value="Owner Table" style="swimlane;fontStyle=1;align=center;verticalAlign=top;childLayout=stackLayout;horizontal=1;startSize=26;horizontalStack=0;resizeParent=1;resizeParentMax=0;resizeLast=0;collapsible=1;marginBottom=0;whiteSpace=wrap;html=1;" parent="1" vertex="1">
          <mxGeometry x="-343" y="1118" width="160" height="138" as="geometry" />
        </mxCell>
        <mxCell id="sh-VWUtLt08OAQ_Weohr-47" value="+ id: number not null" style="text;strokeColor=none;fillColor=none;align=left;verticalAlign=top;spacingLeft=4;spacingRight=4;overflow=hidden;rotatable=0;points=[[0,0.5],[1,0.5]];portConstraint=eastwest;whiteSpace=wrap;html=1;" parent="sh-VWUtLt08OAQ_Weohr-46" vertex="1">
          <mxGeometry y="26" width="160" height="26" as="geometry" />
        </mxCell>
        <mxCell id="sh-VWUtLt08OAQ_Weohr-48" value="+ name: string not null" style="text;strokeColor=none;fillColor=none;align=left;verticalAlign=top;spacingLeft=4;spacingRight=4;overflow=hidden;rotatable=0;points=[[0,0.5],[1,0.5]];portConstraint=eastwest;whiteSpace=wrap;html=1;" parent="sh-VWUtLt08OAQ_Weohr-46" vertex="1">
          <mxGeometry y="52" width="160" height="26" as="geometry" />
        </mxCell>
        <mxCell id="sh-VWUtLt08OAQ_Weohr-49" value="+ contactInfo: string not null" style="text;strokeColor=none;fillColor=none;align=left;verticalAlign=top;spacingLeft=4;spacingRight=4;overflow=hidden;rotatable=0;points=[[0,0.5],[1,0.5]];portConstraint=eastwest;whiteSpace=wrap;html=1;" parent="sh-VWUtLt08OAQ_Weohr-46" vertex="1">
          <mxGeometry y="78" width="160" height="26" as="geometry" />
        </mxCell>
        <mxCell id="sh-VWUtLt08OAQ_Weohr-50" value="" style="line;strokeWidth=1;fillColor=none;align=left;verticalAlign=middle;spacingTop=-1;spacingLeft=3;spacingRight=3;rotatable=0;labelPosition=right;points=[];portConstraint=eastwest;strokeColor=inherit;" parent="sh-VWUtLt08OAQ_Weohr-46" vertex="1">
          <mxGeometry y="104" width="160" height="8" as="geometry" />
        </mxCell>
        <mxCell id="sh-VWUtLt08OAQ_Weohr-51" value="+ addOwner(type):&amp;nbsp;" style="text;strokeColor=none;fillColor=none;align=left;verticalAlign=top;spacingLeft=4;spacingRight=4;overflow=hidden;rotatable=0;points=[[0,0.5],[1,0.5]];portConstraint=eastwest;whiteSpace=wrap;html=1;" parent="sh-VWUtLt08OAQ_Weohr-46" vertex="1">
          <mxGeometry y="112" width="160" height="26" as="geometry" />
        </mxCell>
        <mxCell id="sh-VWUtLt08OAQ_Weohr-52" style="edgeStyle=orthogonalEdgeStyle;rounded=0;orthogonalLoop=1;jettySize=auto;html=1;exitX=0;exitY=0.5;exitDx=0;exitDy=0;entryX=1;entryY=0.5;entryDx=0;entryDy=0;" parent="1" source="sh-VWUtLt08OAQ_Weohr-47" target="sh-VWUtLt08OAQ_Weohr-40" edge="1">
          <mxGeometry relative="1" as="geometry" />
        </mxCell>
        <mxCell id="sh-VWUtLt08OAQ_Weohr-53" value="&lt;b&gt;Data set Diagram&lt;/b&gt;" style="text;html=1;align=center;verticalAlign=middle;resizable=0;points=[];autosize=1;strokeColor=none;fillColor=none;" parent="1" vertex="1">
          <mxGeometry x="-497" y="714" width="120" height="30" as="geometry" />
        </mxCell>
        <mxCell id="sh-VWUtLt08OAQ_Weohr-54" value="&lt;b&gt;Class Diagram&lt;/b&gt;" style="text;html=1;align=center;verticalAlign=middle;resizable=0;points=[];autosize=1;strokeColor=none;fillColor=none;" parent="1" vertex="1">
          <mxGeometry x="-483" y="1059" width="110" height="30" as="geometry" />
        </mxCell>
        <mxCell id="hvKo3OiWxjkWz02sGC5g-1" value="adopt_tbl" style="shape=table;startSize=23;container=1;collapsible=1;childLayout=tableLayout;fixedRows=1;rowLines=0;fontStyle=1;align=center;resizeLast=1;html=1;" vertex="1" parent="1">
          <mxGeometry x="-726.1299999999999" y="375" width="270.13" height="135" as="geometry" />
        </mxCell>
        <mxCell id="hvKo3OiWxjkWz02sGC5g-2" value="" style="shape=tableRow;horizontal=0;startSize=0;swimlaneHead=0;swimlaneBody=0;fillColor=none;collapsible=0;dropTarget=0;points=[[0,0.5],[1,0.5]];portConstraint=eastwest;top=0;left=0;right=0;bottom=1;" vertex="1" parent="hvKo3OiWxjkWz02sGC5g-1">
          <mxGeometry y="23" width="270.13" height="31" as="geometry" />
        </mxCell>
        <mxCell id="hvKo3OiWxjkWz02sGC5g-3" value="PK" style="shape=partialRectangle;connectable=0;fillColor=none;top=0;left=0;bottom=0;right=0;fontStyle=1;overflow=hidden;whiteSpace=wrap;html=1;" vertex="1" parent="hvKo3OiWxjkWz02sGC5g-2">
          <mxGeometry width="30" height="31" as="geometry">
            <mxRectangle width="30" height="31" as="alternateBounds" />
          </mxGeometry>
        </mxCell>
        <mxCell id="hvKo3OiWxjkWz02sGC5g-4" value="adopt_id: int not null" style="shape=partialRectangle;connectable=0;fillColor=none;top=0;left=0;bottom=0;right=0;align=left;spacingLeft=6;fontStyle=5;overflow=hidden;whiteSpace=wrap;html=1;" vertex="1" parent="hvKo3OiWxjkWz02sGC5g-2">
          <mxGeometry x="30" width="240.13" height="31" as="geometry">
            <mxRectangle width="240.13" height="31" as="alternateBounds" />
          </mxGeometry>
        </mxCell>
        <mxCell id="hvKo3OiWxjkWz02sGC5g-5" value="" style="shape=tableRow;horizontal=0;startSize=0;swimlaneHead=0;swimlaneBody=0;fillColor=none;collapsible=0;dropTarget=0;points=[[0,0.5],[1,0.5]];portConstraint=eastwest;top=0;left=0;right=0;bottom=0;" vertex="1" parent="hvKo3OiWxjkWz02sGC5g-1">
          <mxGeometry y="54" width="270.13" height="26" as="geometry" />
        </mxCell>
        <mxCell id="hvKo3OiWxjkWz02sGC5g-6" value="FK" style="shape=partialRectangle;connectable=0;fillColor=none;top=0;left=0;bottom=0;right=0;editable=1;overflow=hidden;whiteSpace=wrap;html=1;" vertex="1" parent="hvKo3OiWxjkWz02sGC5g-5">
          <mxGeometry width="30" height="26" as="geometry">
            <mxRectangle width="30" height="26" as="alternateBounds" />
          </mxGeometry>
        </mxCell>
        <mxCell id="hvKo3OiWxjkWz02sGC5g-7" value="adopter_id: int&amp;nbsp;" style="shape=partialRectangle;connectable=0;fillColor=none;top=0;left=0;bottom=0;right=0;align=left;spacingLeft=6;overflow=hidden;whiteSpace=wrap;html=1;" vertex="1" parent="hvKo3OiWxjkWz02sGC5g-5">
          <mxGeometry x="30" width="240.13" height="26" as="geometry">
            <mxRectangle width="240.13" height="26" as="alternateBounds" />
          </mxGeometry>
        </mxCell>
        <mxCell id="hvKo3OiWxjkWz02sGC5g-8" value="" style="shape=tableRow;horizontal=0;startSize=0;swimlaneHead=0;swimlaneBody=0;fillColor=none;collapsible=0;dropTarget=0;points=[[0,0.5],[1,0.5]];portConstraint=eastwest;top=0;left=0;right=0;bottom=0;" vertex="1" parent="hvKo3OiWxjkWz02sGC5g-1">
          <mxGeometry y="80" width="270.13" height="30" as="geometry" />
        </mxCell>
        <mxCell id="hvKo3OiWxjkWz02sGC5g-9" value="FK" style="shape=partialRectangle;connectable=0;fillColor=none;top=0;left=0;bottom=0;right=0;editable=1;overflow=hidden;whiteSpace=wrap;html=1;" vertex="1" parent="hvKo3OiWxjkWz02sGC5g-8">
          <mxGeometry width="30" height="30" as="geometry">
            <mxRectangle width="30" height="30" as="alternateBounds" />
          </mxGeometry>
        </mxCell>
        <mxCell id="hvKo3OiWxjkWz02sGC5g-10" value="puppy_tbl_id: int not null" style="shape=partialRectangle;connectable=0;fillColor=none;top=0;left=0;bottom=0;right=0;align=left;spacingLeft=6;overflow=hidden;whiteSpace=wrap;html=1;" vertex="1" parent="hvKo3OiWxjkWz02sGC5g-8">
          <mxGeometry x="30" width="240.13" height="30" as="geometry">
            <mxRectangle width="240.13" height="30" as="alternateBounds" />
          </mxGeometry>
        </mxCell>
        <mxCell id="hvKo3OiWxjkWz02sGC5g-11" value="" style="shape=tableRow;horizontal=0;startSize=0;swimlaneHead=0;swimlaneBody=0;fillColor=none;collapsible=0;dropTarget=0;points=[[0,0.5],[1,0.5]];portConstraint=eastwest;top=0;left=0;right=0;bottom=0;" vertex="1" parent="hvKo3OiWxjkWz02sGC5g-1">
          <mxGeometry y="110" width="270.13" height="25" as="geometry" />
        </mxCell>
        <mxCell id="hvKo3OiWxjkWz02sGC5g-12" value="" style="shape=partialRectangle;connectable=0;fillColor=none;top=0;left=0;bottom=0;right=0;editable=1;overflow=hidden;whiteSpace=wrap;html=1;" vertex="1" parent="hvKo3OiWxjkWz02sGC5g-11">
          <mxGeometry width="30" height="25" as="geometry">
            <mxRectangle width="30" height="25" as="alternateBounds" />
          </mxGeometry>
        </mxCell>
        <mxCell id="hvKo3OiWxjkWz02sGC5g-13" value="adopt_date: date" style="shape=partialRectangle;connectable=0;fillColor=none;top=0;left=0;bottom=0;right=0;align=left;spacingLeft=6;overflow=hidden;whiteSpace=wrap;html=1;" vertex="1" parent="hvKo3OiWxjkWz02sGC5g-11">
          <mxGeometry x="30" width="240.13" height="25" as="geometry">
            <mxRectangle width="240.13" height="25" as="alternateBounds" />
          </mxGeometry>
        </mxCell>
        <mxCell id="hvKo3OiWxjkWz02sGC5g-14" style="edgeStyle=orthogonalEdgeStyle;rounded=0;orthogonalLoop=1;jettySize=auto;html=1;exitX=0;exitY=0.5;exitDx=0;exitDy=0;entryX=1;entryY=0.5;entryDx=0;entryDy=0;startArrow=ERone;startFill=0;endArrow=ERone;endFill=0;" edge="1" parent="1" source="FIItw17yLOzdHlYJPoX4-2" target="hvKo3OiWxjkWz02sGC5g-8">
          <mxGeometry relative="1" as="geometry" />
        </mxCell>
        <mxCell id="hvKo3OiWxjkWz02sGC5g-15" style="edgeStyle=orthogonalEdgeStyle;rounded=0;orthogonalLoop=1;jettySize=auto;html=1;exitX=1;exitY=0.5;exitDx=0;exitDy=0;entryX=1;entryY=0.5;entryDx=0;entryDy=0;startArrow=ERone;startFill=0;endArrow=ERoneToMany;endFill=0;" edge="1" parent="1" source="FIItw17yLOzdHlYJPoX4-21" target="hvKo3OiWxjkWz02sGC5g-5">
          <mxGeometry relative="1" as="geometry" />
        </mxCell>
      </root>
    </mxGraphModel>
  </diagram>
</mxfile>
